ISO-10303-21;
HEADER;
/*Generated by software containing ST-Developer
 * from STEP Tools, Inc. (www.steptools.com) 
 */
/*OPTION: using custom renumber hook */
/*description */
/*implementation_level */
FILE_DESCRIPTION(('STEP AP242 Edition 2','STEP AP242 Edition 2''CAx-IF Rec.Pracs.---Representation and Presentation of Product Manufa
cturing Information (PMI)---4.0---2014-10-13','STEP AP242 Edition 2''CAx-IF Rec.Pracs.---Representation and Presentation of Product Manufa
cturing Information (PMI)---4.0---2014-10-13''CAx-IF Rec.Pracs.---3D Tessellated Geometry---0.4---2014-09-14','STEP AP242 Edition 2''CAx-IF Rec.Pracs.---Representation and Presentation of Product Manufa
cturing Information (PMI)---4.0---2014-10-13''CAx-IF Rec.Pracs.---3D Tessellated Geometry---0.4---2014-09-14''2;1','STEP AP242 Edition 2''CAx-IF Rec.Pracs.---Representation and Presentation of Product Manufa
cturing Information (PMI)---4.0---2014-10-13''CAx-IF Rec.Pracs.---3D Tessellated Geometry---0.4---2014-09-14''2;1''CAx-IF Rec.Pracs.---User Defined Attributes---1.5---2016-08-15'),'2;1');
/*name */
/*time_stamp */
/*author */
/*organization */
/*preprocessor_version */
/*originating_system */
/*authorisation */
FILE_NAME('/vol/tmp/translate-2426325010113064483/debug-cover - debug-cover.step','2026-03-01T21:14:11',(''),(''),'ST-DEVELOPER v20','ONSHAPE BY PTC INC, 1.211','  ');
FILE_SCHEMA(('AP242_MANAGED_MODEL_BASED_3D_ENGINEERING_MIM_LF { 1 0 10303 442 3 1 4 }'));
ENDSEC;
DATA;
#10=SHAPE_REPRESENTATION_RELATIONSHIP('','',#279,#11);
#11=ADVANCED_BREP_SHAPE_REPRESENTATION('',(#277),#477);
#12=CIRCLE('',#283,0.0028);
#13=CIRCLE('',#284,0.0028);
#14=CIRCLE('',#287,0.0028);
#15=CIRCLE('',#288,0.0028);
#16=CIRCLE('',#291,0.0028);
#17=CIRCLE('',#292,0.0028);
#18=CIRCLE('',#295,0.00175);
#19=CIRCLE('',#296,0.00175);
#20=CIRCLE('',#298,0.00175);
#21=CIRCLE('',#299,0.00175);
#22=CIRCLE('',#301,0.00175);
#23=CIRCLE('',#302,0.00175);
#24=CIRCLE('',#304,0.00175);
#25=CIRCLE('',#305,0.00175);
#26=CIRCLE('',#307,0.0028);
#27=CIRCLE('',#308,0.0028);
#28=CYLINDRICAL_SURFACE('',#282,0.0028);
#29=CYLINDRICAL_SURFACE('',#286,0.0028);
#30=CYLINDRICAL_SURFACE('',#290,0.0028);
#31=CYLINDRICAL_SURFACE('',#294,0.00175);
#32=CYLINDRICAL_SURFACE('',#297,0.00175);
#33=CYLINDRICAL_SURFACE('',#300,0.00175);
#34=CYLINDRICAL_SURFACE('',#303,0.00175);
#35=CYLINDRICAL_SURFACE('',#306,0.0028);
#36=ORIENTED_EDGE('',*,*,#100,.T.);
#37=ORIENTED_EDGE('',*,*,#101,.F.);
#38=ORIENTED_EDGE('',*,*,#102,.F.);
#39=ORIENTED_EDGE('',*,*,#103,.T.);
#40=ORIENTED_EDGE('',*,*,#104,.T.);
#41=ORIENTED_EDGE('',*,*,#105,.F.);
#42=ORIENTED_EDGE('',*,*,#100,.F.);
#43=ORIENTED_EDGE('',*,*,#106,.T.);
#44=ORIENTED_EDGE('',*,*,#107,.T.);
#45=ORIENTED_EDGE('',*,*,#108,.F.);
#46=ORIENTED_EDGE('',*,*,#104,.F.);
#47=ORIENTED_EDGE('',*,*,#109,.T.);
#48=ORIENTED_EDGE('',*,*,#110,.T.);
#49=ORIENTED_EDGE('',*,*,#111,.F.);
#50=ORIENTED_EDGE('',*,*,#107,.F.);
#51=ORIENTED_EDGE('',*,*,#112,.T.);
#52=ORIENTED_EDGE('',*,*,#113,.T.);
#53=ORIENTED_EDGE('',*,*,#114,.F.);
#54=ORIENTED_EDGE('',*,*,#110,.F.);
#55=ORIENTED_EDGE('',*,*,#115,.T.);
#56=ORIENTED_EDGE('',*,*,#116,.T.);
#57=ORIENTED_EDGE('',*,*,#117,.F.);
#58=ORIENTED_EDGE('',*,*,#113,.F.);
#59=ORIENTED_EDGE('',*,*,#118,.T.);
#60=ORIENTED_EDGE('',*,*,#119,.T.);
#61=ORIENTED_EDGE('',*,*,#120,.F.);
#62=ORIENTED_EDGE('',*,*,#116,.F.);
#63=ORIENTED_EDGE('',*,*,#121,.T.);
#64=ORIENTED_EDGE('',*,*,#122,.F.);
#65=ORIENTED_EDGE('',*,*,#123,.T.);
#66=ORIENTED_EDGE('',*,*,#124,.F.);
#67=ORIENTED_EDGE('',*,*,#125,.T.);
#68=ORIENTED_EDGE('',*,*,#126,.F.);
#69=ORIENTED_EDGE('',*,*,#127,.T.);
#70=ORIENTED_EDGE('',*,*,#128,.F.);
#71=ORIENTED_EDGE('',*,*,#129,.T.);
#72=ORIENTED_EDGE('',*,*,#102,.T.);
#73=ORIENTED_EDGE('',*,*,#130,.F.);
#74=ORIENTED_EDGE('',*,*,#119,.F.);
#75=ORIENTED_EDGE('',*,*,#131,.T.);
#76=ORIENTED_EDGE('',*,*,#128,.T.);
#77=ORIENTED_EDGE('',*,*,#126,.T.);
#78=ORIENTED_EDGE('',*,*,#124,.T.);
#79=ORIENTED_EDGE('',*,*,#122,.T.);
#80=ORIENTED_EDGE('',*,*,#103,.F.);
#81=ORIENTED_EDGE('',*,*,#131,.F.);
#82=ORIENTED_EDGE('',*,*,#121,.F.);
#83=ORIENTED_EDGE('',*,*,#118,.F.);
#84=ORIENTED_EDGE('',*,*,#115,.F.);
#85=ORIENTED_EDGE('',*,*,#112,.F.);
#86=ORIENTED_EDGE('',*,*,#109,.F.);
#87=ORIENTED_EDGE('',*,*,#106,.F.);
#88=ORIENTED_EDGE('',*,*,#123,.F.);
#89=ORIENTED_EDGE('',*,*,#125,.F.);
#90=ORIENTED_EDGE('',*,*,#127,.F.);
#91=ORIENTED_EDGE('',*,*,#129,.F.);
#92=ORIENTED_EDGE('',*,*,#101,.T.);
#93=ORIENTED_EDGE('',*,*,#105,.T.);
#94=ORIENTED_EDGE('',*,*,#108,.T.);
#95=ORIENTED_EDGE('',*,*,#111,.T.);
#96=ORIENTED_EDGE('',*,*,#114,.T.);
#97=ORIENTED_EDGE('',*,*,#117,.T.);
#98=ORIENTED_EDGE('',*,*,#120,.T.);
#99=ORIENTED_EDGE('',*,*,#130,.T.);
#100=EDGE_CURVE('',#132,#133,#156,.T.);
#101=EDGE_CURVE('',#134,#133,#157,.T.);
#102=EDGE_CURVE('',#135,#134,#158,.T.);
#103=EDGE_CURVE('',#135,#132,#159,.T.);
#104=EDGE_CURVE('',#136,#137,#160,.T.);
#105=EDGE_CURVE('',#133,#137,#12,.T.);
#106=EDGE_CURVE('',#132,#136,#13,.T.);
#107=EDGE_CURVE('',#138,#139,#161,.T.);
#108=EDGE_CURVE('',#137,#139,#162,.T.);
#109=EDGE_CURVE('',#136,#138,#163,.T.);
#110=EDGE_CURVE('',#140,#141,#164,.T.);
#111=EDGE_CURVE('',#139,#141,#14,.T.);
#112=EDGE_CURVE('',#138,#140,#15,.T.);
#113=EDGE_CURVE('',#142,#143,#165,.T.);
#114=EDGE_CURVE('',#141,#143,#166,.T.);
#115=EDGE_CURVE('',#140,#142,#167,.T.);
#116=EDGE_CURVE('',#144,#145,#168,.T.);
#117=EDGE_CURVE('',#143,#145,#16,.T.);
#118=EDGE_CURVE('',#142,#144,#17,.T.);
#119=EDGE_CURVE('',#146,#147,#169,.T.);
#120=EDGE_CURVE('',#145,#147,#170,.T.);
#121=EDGE_CURVE('',#144,#146,#171,.T.);
#122=EDGE_CURVE('',#148,#148,#18,.T.);
#123=EDGE_CURVE('',#149,#149,#19,.T.);
#124=EDGE_CURVE('',#150,#150,#20,.T.);
#125=EDGE_CURVE('',#151,#151,#21,.T.);
#126=EDGE_CURVE('',#152,#152,#22,.T.);
#127=EDGE_CURVE('',#153,#153,#23,.T.);
#128=EDGE_CURVE('',#154,#154,#24,.T.);
#129=EDGE_CURVE('',#155,#155,#25,.T.);
#130=EDGE_CURVE('',#147,#134,#26,.T.);
#131=EDGE_CURVE('',#146,#135,#27,.T.);
#132=VERTEX_POINT('',#404);
#133=VERTEX_POINT('',#405);
#134=VERTEX_POINT('',#407);
#135=VERTEX_POINT('',#409);
#136=VERTEX_POINT('',#413);
#137=VERTEX_POINT('',#414);
#138=VERTEX_POINT('',#419);
#139=VERTEX_POINT('',#420);
#140=VERTEX_POINT('',#425);
#141=VERTEX_POINT('',#426);
#142=VERTEX_POINT('',#431);
#143=VERTEX_POINT('',#432);
#144=VERTEX_POINT('',#437);
#145=VERTEX_POINT('',#438);
#146=VERTEX_POINT('',#443);
#147=VERTEX_POINT('',#444);
#148=VERTEX_POINT('',#449);
#149=VERTEX_POINT('',#451);
#150=VERTEX_POINT('',#454);
#151=VERTEX_POINT('',#456);
#152=VERTEX_POINT('',#459);
#153=VERTEX_POINT('',#461);
#154=VERTEX_POINT('',#464);
#155=VERTEX_POINT('',#466);
#156=LINE('',#403,#172);
#157=LINE('',#406,#173);
#158=LINE('',#408,#174);
#159=LINE('',#410,#175);
#160=LINE('',#412,#176);
#161=LINE('',#418,#177);
#162=LINE('',#421,#178);
#163=LINE('',#422,#179);
#164=LINE('',#424,#180);
#165=LINE('',#430,#181);
#166=LINE('',#433,#182);
#167=LINE('',#434,#183);
#168=LINE('',#436,#184);
#169=LINE('',#442,#185);
#170=LINE('',#445,#186);
#171=LINE('',#446,#187);
#172=VECTOR('',#319,1.);
#173=VECTOR('',#320,1.);
#174=VECTOR('',#321,1.);
#175=VECTOR('',#322,1.);
#176=VECTOR('',#325,1.);
#177=VECTOR('',#332,1.);
#178=VECTOR('',#333,1.);
#179=VECTOR('',#334,1.);
#180=VECTOR('',#337,1.);
#181=VECTOR('',#344,1.);
#182=VECTOR('',#345,1.);
#183=VECTOR('',#346,1.);
#184=VECTOR('',#349,1.);
#185=VECTOR('',#356,1.);
#186=VECTOR('',#357,1.);
#187=VECTOR('',#358,1.);
#188=EDGE_LOOP('',(#36,#37,#38,#39));
#189=EDGE_LOOP('',(#40,#41,#42,#43));
#190=EDGE_LOOP('',(#44,#45,#46,#47));
#191=EDGE_LOOP('',(#48,#49,#50,#51));
#192=EDGE_LOOP('',(#52,#53,#54,#55));
#193=EDGE_LOOP('',(#56,#57,#58,#59));
#194=EDGE_LOOP('',(#60,#61,#62,#63));
#195=EDGE_LOOP('',(#64));
#196=EDGE_LOOP('',(#65));
#197=EDGE_LOOP('',(#66));
#198=EDGE_LOOP('',(#67));
#199=EDGE_LOOP('',(#68));
#200=EDGE_LOOP('',(#69));
#201=EDGE_LOOP('',(#70));
#202=EDGE_LOOP('',(#71));
#203=EDGE_LOOP('',(#72,#73,#74,#75));
#204=EDGE_LOOP('',(#76));
#205=EDGE_LOOP('',(#77));
#206=EDGE_LOOP('',(#78));
#207=EDGE_LOOP('',(#79));
#208=EDGE_LOOP('',(#80,#81,#82,#83,#84,#85,#86,#87));
#209=EDGE_LOOP('',(#88));
#210=EDGE_LOOP('',(#89));
#211=EDGE_LOOP('',(#90));
#212=EDGE_LOOP('',(#91));
#213=EDGE_LOOP('',(#92,#93,#94,#95,#96,#97,#98,#99));
#214=FACE_BOUND('',#188,.T.);
#215=FACE_BOUND('',#189,.T.);
#216=FACE_BOUND('',#190,.T.);
#217=FACE_BOUND('',#191,.T.);
#218=FACE_BOUND('',#192,.T.);
#219=FACE_BOUND('',#193,.T.);
#220=FACE_BOUND('',#194,.T.);
#221=FACE_BOUND('',#195,.T.);
#222=FACE_BOUND('',#196,.T.);
#223=FACE_BOUND('',#197,.T.);
#224=FACE_BOUND('',#198,.T.);
#225=FACE_BOUND('',#199,.T.);
#226=FACE_BOUND('',#200,.T.);
#227=FACE_BOUND('',#201,.T.);
#228=FACE_BOUND('',#202,.T.);
#229=FACE_BOUND('',#203,.T.);
#230=FACE_BOUND('',#204,.T.);
#231=FACE_BOUND('',#205,.T.);
#232=FACE_BOUND('',#206,.T.);
#233=FACE_BOUND('',#207,.T.);
#234=FACE_BOUND('',#208,.T.);
#235=FACE_BOUND('',#209,.T.);
#236=FACE_BOUND('',#210,.T.);
#237=FACE_BOUND('',#211,.T.);
#238=FACE_BOUND('',#212,.T.);
#239=FACE_BOUND('',#213,.T.);
#240=PLANE('',#281);
#241=PLANE('',#285);
#242=PLANE('',#289);
#243=PLANE('',#293);
#244=PLANE('',#309);
#245=PLANE('',#310);
#246=PLANE('',#311);
#247=PLANE('',#312);
#248=PLANE('',#313);
#249=PLANE('',#314);
#250=ADVANCED_FACE('',(#214),#240,.T.);
#251=ADVANCED_FACE('',(#215),#28,.T.);
#252=ADVANCED_FACE('',(#216),#241,.T.);
#253=ADVANCED_FACE('',(#217),#29,.T.);
#254=ADVANCED_FACE('',(#218),#242,.T.);
#255=ADVANCED_FACE('',(#219),#30,.T.);
#256=ADVANCED_FACE('',(#220),#243,.T.);
#257=ADVANCED_FACE('',(#221,#222),#31,.F.);
#258=ADVANCED_FACE('',(#223,#224),#32,.F.);
#259=ADVANCED_FACE('',(#225,#226),#33,.F.);
#260=ADVANCED_FACE('',(#227,#228),#34,.F.);
#261=ADVANCED_FACE('',(#229),#35,.T.);
#262=ADVANCED_FACE('',(#230,#231,#232,#233,#234),#244,.F.);
#263=ADVANCED_FACE('',(#235),#245,.F.);
#264=ADVANCED_FACE('',(#236),#246,.F.);
#265=ADVANCED_FACE('',(#237),#247,.F.);
#266=ADVANCED_FACE('',(#238),#248,.F.);
#267=ADVANCED_FACE('',(#239),#249,.T.);
#268=CLOSED_SHELL('',(#250,#251,#252,#253,#254,#255,#256,#257,#258,#259,#260,#261,#262,#263,#264,#265,#266,#267));
#269=STYLED_ITEM('',(#270),#277);
#270=PRESENTATION_STYLE_ASSIGNMENT((#271));
#271=SURFACE_STYLE_USAGE(.BOTH.,#272);
#272=SURFACE_SIDE_STYLE('',(#273));
#273=SURFACE_STYLE_FILL_AREA(#274);
#274=FILL_AREA_STYLE('',(#275));
#275=FILL_AREA_STYLE_COLOUR('',#276);
#276=COLOUR_RGB('',0.301960784313725,0.301960784313725,0.301960784313725);
#277=MANIFOLD_SOLID_BREP('debug-cover',#268);
#278=SHAPE_DEFINITION_REPRESENTATION(#482,#279);
#279=SHAPE_REPRESENTATION('debug-cover',(#280),#477);
#280=AXIS2_PLACEMENT_3D('',#401,#315,#316);
#281=AXIS2_PLACEMENT_3D('',#402,#317,#318);
#282=AXIS2_PLACEMENT_3D('',#411,#323,#324);
#283=AXIS2_PLACEMENT_3D('',#415,#326,#327);
#284=AXIS2_PLACEMENT_3D('',#416,#328,#329);
#285=AXIS2_PLACEMENT_3D('',#417,#330,#331);
#286=AXIS2_PLACEMENT_3D('',#423,#335,#336);
#287=AXIS2_PLACEMENT_3D('',#427,#338,#339);
#288=AXIS2_PLACEMENT_3D('',#428,#340,#341);
#289=AXIS2_PLACEMENT_3D('',#429,#342,#343);
#290=AXIS2_PLACEMENT_3D('',#435,#347,#348);
#291=AXIS2_PLACEMENT_3D('',#439,#350,#351);
#292=AXIS2_PLACEMENT_3D('',#440,#352,#353);
#293=AXIS2_PLACEMENT_3D('',#441,#354,#355);
#294=AXIS2_PLACEMENT_3D('',#447,#359,#360);
#295=AXIS2_PLACEMENT_3D('',#448,#361,#362);
#296=AXIS2_PLACEMENT_3D('',#450,#363,#364);
#297=AXIS2_PLACEMENT_3D('',#452,#365,#366);
#298=AXIS2_PLACEMENT_3D('',#453,#367,#368);
#299=AXIS2_PLACEMENT_3D('',#455,#369,#370);
#300=AXIS2_PLACEMENT_3D('',#457,#371,#372);
#301=AXIS2_PLACEMENT_3D('',#458,#373,#374);
#302=AXIS2_PLACEMENT_3D('',#460,#375,#376);
#303=AXIS2_PLACEMENT_3D('',#462,#377,#378);
#304=AXIS2_PLACEMENT_3D('',#463,#379,#380);
#305=AXIS2_PLACEMENT_3D('',#465,#381,#382);
#306=AXIS2_PLACEMENT_3D('',#467,#383,#384);
#307=AXIS2_PLACEMENT_3D('',#468,#385,#386);
#308=AXIS2_PLACEMENT_3D('',#469,#387,#388);
#309=AXIS2_PLACEMENT_3D('',#470,#389,#390);
#310=AXIS2_PLACEMENT_3D('',#471,#391,#392);
#311=AXIS2_PLACEMENT_3D('',#472,#393,#394);
#312=AXIS2_PLACEMENT_3D('',#473,#395,#396);
#313=AXIS2_PLACEMENT_3D('',#474,#397,#398);
#314=AXIS2_PLACEMENT_3D('',#475,#399,#400);
#315=DIRECTION('',(0.,0.,1.));
#316=DIRECTION('',(1.,0.,0.));
#317=DIRECTION('',(0.,-1.,0.));
#318=DIRECTION('',(0.,0.,-1.));
#319=DIRECTION('',(-1.,0.,0.));
#320=DIRECTION('',(0.,0.,1.));
#321=DIRECTION('',(-1.,0.,0.));
#322=DIRECTION('',(0.,0.,1.));
#323=DIRECTION('',(-1.,0.,0.));
#324=DIRECTION('',(0.,0.,1.));
#325=DIRECTION('',(-1.,0.,0.));
#326=DIRECTION('',(-1.,0.,0.));
#327=DIRECTION('',(0.,0.,1.));
#328=DIRECTION('',(-1.,0.,0.));
#329=DIRECTION('',(0.,0.,1.));
#330=DIRECTION('',(0.,0.,1.));
#331=DIRECTION('',(1.,0.,0.));
#332=DIRECTION('',(-1.,0.,0.));
#333=DIRECTION('',(0.,1.,0.));
#334=DIRECTION('',(0.,1.,0.));
#335=DIRECTION('',(-1.,0.,0.));
#336=DIRECTION('',(0.,0.,1.));
#337=DIRECTION('',(-1.,0.,0.));
#338=DIRECTION('',(-1.,0.,0.));
#339=DIRECTION('',(0.,0.,1.));
#340=DIRECTION('',(-1.,0.,0.));
#341=DIRECTION('',(0.,0.,1.));
#342=DIRECTION('',(0.,1.,0.));
#343=DIRECTION('',(0.,0.,1.));
#344=DIRECTION('',(-1.,0.,0.));
#345=DIRECTION('',(0.,0.,-1.));
#346=DIRECTION('',(0.,0.,-1.));
#347=DIRECTION('',(-1.,0.,0.));
#348=DIRECTION('',(0.,0.,1.));
#349=DIRECTION('',(-1.,0.,0.));
#350=DIRECTION('',(-1.,0.,0.));
#351=DIRECTION('',(0.,0.,1.));
#352=DIRECTION('',(-1.,0.,0.));
#353=DIRECTION('',(0.,0.,1.));
#354=DIRECTION('',(0.,0.,-1.));
#355=DIRECTION('',(-1.,0.,0.));
#356=DIRECTION('',(-1.,0.,0.));
#357=DIRECTION('',(0.,-1.,0.));
#358=DIRECTION('',(0.,-1.,0.));
#359=DIRECTION('',(-1.,0.,0.));
#360=DIRECTION('',(0.,0.,1.));
#361=DIRECTION('',(-1.,0.,0.));
#362=DIRECTION('',(0.,0.,1.));
#363=DIRECTION('',(-1.,0.,0.));
#364=DIRECTION('',(0.,0.,1.));
#365=DIRECTION('',(-1.,0.,0.));
#366=DIRECTION('',(0.,0.,1.));
#367=DIRECTION('',(-1.,0.,0.));
#368=DIRECTION('',(0.,0.,1.));
#369=DIRECTION('',(-1.,0.,0.));
#370=DIRECTION('',(0.,0.,1.));
#371=DIRECTION('',(-1.,0.,0.));
#372=DIRECTION('',(0.,0.,1.));
#373=DIRECTION('',(-1.,0.,0.));
#374=DIRECTION('',(0.,0.,1.));
#375=DIRECTION('',(-1.,0.,0.));
#376=DIRECTION('',(0.,0.,1.));
#377=DIRECTION('',(-1.,0.,0.));
#378=DIRECTION('',(0.,0.,1.));
#379=DIRECTION('',(-1.,0.,0.));
#380=DIRECTION('',(0.,0.,1.));
#381=DIRECTION('',(-1.,0.,0.));
#382=DIRECTION('',(0.,0.,1.));
#383=DIRECTION('',(-1.,0.,0.));
#384=DIRECTION('',(0.,0.,1.));
#385=DIRECTION('',(-1.,0.,0.));
#386=DIRECTION('',(0.,0.,1.));
#387=DIRECTION('',(-1.,0.,0.));
#388=DIRECTION('',(0.,0.,1.));
#389=DIRECTION('',(-1.,0.,0.));
#390=DIRECTION('',(0.,-1.,0.));
#391=DIRECTION('',(-1.,0.,0.));
#392=DIRECTION('',(0.,-1.,0.));
#393=DIRECTION('',(-1.,0.,0.));
#394=DIRECTION('',(0.,-1.,0.));
#395=DIRECTION('',(-1.,0.,0.));
#396=DIRECTION('',(0.,-1.,0.));
#397=DIRECTION('',(-1.,0.,0.));
#398=DIRECTION('',(0.,-1.,0.));
#399=DIRECTION('',(-1.,0.,0.));
#400=DIRECTION('',(0.,-1.,0.));
#401=CARTESIAN_POINT('',(0.,0.,0.));
#402=CARTESIAN_POINT('',(-0.115971095974022,0.0447,0.0068));
#403=CARTESIAN_POINT('',(-0.115971095974022,0.0447,0.01));
#404=CARTESIAN_POINT('',(-0.115971095974022,0.0447,0.01));
#405=CARTESIAN_POINT('',(-0.118671095974022,0.0447,0.01));
#406=CARTESIAN_POINT('',(-0.118671095974022,0.0447,0.0068));
#407=CARTESIAN_POINT('',(-0.118671095974022,0.0447,0.0036));
#408=CARTESIAN_POINT('',(-0.115971095974022,0.0447,0.0036));
#409=CARTESIAN_POINT('',(-0.115971095974022,0.0447,0.0036));
#410=CARTESIAN_POINT('',(-0.115971095974022,0.0447,0.0068));
#411=CARTESIAN_POINT('',(-0.115971095974022,0.0475,0.01));
#412=CARTESIAN_POINT('',(-0.115971095974022,0.0475,0.0128));
#413=CARTESIAN_POINT('',(-0.115971095974022,0.0475,0.0128));
#414=CARTESIAN_POINT('',(-0.118671095974022,0.0475,0.0128));
#415=CARTESIAN_POINT('',(-0.118671095974022,0.0475,0.01));
#416=CARTESIAN_POINT('',(-0.115971095974022,0.0475,0.01));
#417=CARTESIAN_POINT('',(-0.115971095974022,0.0565,0.0128));
#418=CARTESIAN_POINT('',(-0.115971095974022,0.0655,0.0128));
#419=CARTESIAN_POINT('',(-0.115971095974022,0.0655,0.0128));
#420=CARTESIAN_POINT('',(-0.118671095974022,0.0655,0.0128));
#421=CARTESIAN_POINT('',(-0.118671095974022,0.0565,0.0128));
#422=CARTESIAN_POINT('',(-0.115971095974022,0.0565,0.0128));
#423=CARTESIAN_POINT('',(-0.115971095974022,0.0655,0.01));
#424=CARTESIAN_POINT('',(-0.115971095974022,0.0683,0.01));
#425=CARTESIAN_POINT('',(-0.115971095974022,0.0683,0.01));
#426=CARTESIAN_POINT('',(-0.118671095974022,0.0683,0.01));
#427=CARTESIAN_POINT('',(-0.118671095974022,0.0655,0.01));
#428=CARTESIAN_POINT('',(-0.115971095974022,0.0655,0.01));
#429=CARTESIAN_POINT('',(-0.115971095974022,0.0683,0.0068));
#430=CARTESIAN_POINT('',(-0.115971095974022,0.0683,0.0036));
#431=CARTESIAN_POINT('',(-0.115971095974022,0.0683,0.0036));
#432=CARTESIAN_POINT('',(-0.118671095974022,0.0683,0.0036));
#433=CARTESIAN_POINT('',(-0.118671095974022,0.0683,0.0068));
#434=CARTESIAN_POINT('',(-0.115971095974022,0.0683,0.0068));
#435=CARTESIAN_POINT('',(-0.115971095974022,0.0655,0.0036));
#436=CARTESIAN_POINT('',(-0.115971095974022,0.0655,0.0008));
#437=CARTESIAN_POINT('',(-0.115971095974022,0.0655,0.0008));
#438=CARTESIAN_POINT('',(-0.118671095974022,0.0655,0.0008));
#439=CARTESIAN_POINT('',(-0.118671095974022,0.0655,0.0036));
#440=CARTESIAN_POINT('',(-0.115971095974022,0.0655,0.0036));
#441=CARTESIAN_POINT('',(-0.115971095974022,0.0565,0.0008));
#442=CARTESIAN_POINT('',(-0.115971095974022,0.0475,0.0008));
#443=CARTESIAN_POINT('',(-0.115971095974022,0.0475,0.0008));
#444=CARTESIAN_POINT('',(-0.118671095974022,0.0475,0.0008));
#445=CARTESIAN_POINT('',(-0.118671095974022,0.0565,0.0008));
#446=CARTESIAN_POINT('',(-0.115971095974022,0.0565,0.0008));
#447=CARTESIAN_POINT('',(-0.115971095974022,0.0655,0.01));
#448=CARTESIAN_POINT('',(-0.115971095974022,0.0655,0.01));
#449=CARTESIAN_POINT('',(-0.115971095974022,0.0655,0.01175));
#450=CARTESIAN_POINT('',(-0.117571095974022,0.0655,0.01));
#451=CARTESIAN_POINT('',(-0.117571095974022,0.0655,0.01175));
#452=CARTESIAN_POINT('',(-0.115971095974022,0.0475,0.01));
#453=CARTESIAN_POINT('',(-0.115971095974022,0.0475,0.01));
#454=CARTESIAN_POINT('',(-0.115971095974022,0.0475,0.01175));
#455=CARTESIAN_POINT('',(-0.117571095974022,0.0475,0.01));
#456=CARTESIAN_POINT('',(-0.117571095974022,0.0475,0.01175));
#457=CARTESIAN_POINT('',(-0.115971095974022,0.0475,0.0036));
#458=CARTESIAN_POINT('',(-0.115971095974022,0.0475,0.0036));
#459=CARTESIAN_POINT('',(-0.115971095974022,0.0475,0.00535));
#460=CARTESIAN_POINT('',(-0.117571095974022,0.0475,0.0036));
#461=CARTESIAN_POINT('',(-0.117571095974022,0.0475,0.00535));
#462=CARTESIAN_POINT('',(-0.115971095974022,0.0655,0.0036));
#463=CARTESIAN_POINT('',(-0.115971095974022,0.0655,0.0036));
#464=CARTESIAN_POINT('',(-0.115971095974022,0.0655,0.00535));
#465=CARTESIAN_POINT('',(-0.117571095974022,0.0655,0.0036));
#466=CARTESIAN_POINT('',(-0.117571095974022,0.0655,0.00535));
#467=CARTESIAN_POINT('',(-0.115971095974022,0.0475,0.0036));
#468=CARTESIAN_POINT('',(-0.118671095974022,0.0475,0.0036));
#469=CARTESIAN_POINT('',(-0.115971095974022,0.0475,0.0036));
#470=CARTESIAN_POINT('',(-0.115971095974022,0.036,0.00918044237031741));
#471=CARTESIAN_POINT('',(-0.117571095974022,0.036,0.00918044237031741));
#472=CARTESIAN_POINT('',(-0.117571095974022,0.036,0.00918044237031741));
#473=CARTESIAN_POINT('',(-0.117571095974022,0.036,0.00918044237031741));
#474=CARTESIAN_POINT('',(-0.117571095974022,0.036,0.00918044237031741));
#475=CARTESIAN_POINT('',(-0.118671095974022,0.036,0.00918044237031741));
#476=MECHANICAL_DESIGN_GEOMETRIC_PRESENTATION_REPRESENTATION('',(#269),#477);
#477=(
GEOMETRIC_REPRESENTATION_CONTEXT(3)
GLOBAL_UNCERTAINTY_ASSIGNED_CONTEXT((#478))
GLOBAL_UNIT_ASSIGNED_CONTEXT((#481,#480,#479))
REPRESENTATION_CONTEXT('debug-cover','TOP_LEVEL_ASSEMBLY_PART')
);
#478=UNCERTAINTY_MEASURE_WITH_UNIT(LENGTH_MEASURE(1.E-08),#481,'DISTANCE_ACCURACY_VALUE','Maximum Tolerance applied to model');
#479=(
NAMED_UNIT(*)
SI_UNIT($,.STERADIAN.)
SOLID_ANGLE_UNIT()
);
#480=(
NAMED_UNIT(*)
PLANE_ANGLE_UNIT()
SI_UNIT($,.RADIAN.)
);
#481=(
LENGTH_UNIT()
NAMED_UNIT(*)
SI_UNIT($,.METRE.)
);
#482=PRODUCT_DEFINITION_SHAPE('','',#483);
#483=PRODUCT_DEFINITION('','',#485,#484);
#484=PRODUCT_DEFINITION_CONTEXT('',#491,'design');
#485=PRODUCT_DEFINITION_FORMATION_WITH_SPECIFIED_SOURCE('','',#487,.NOT_KNOWN.);
#486=PRODUCT_RELATED_PRODUCT_CATEGORY('','',(#487));
#487=PRODUCT('debug-cover','debug-cover','debug-cover',(#489));
#488=PRODUCT_CATEGORY('','');
#489=PRODUCT_CONTEXT('',#491,'mechanical');
#490=APPLICATION_PROTOCOL_DEFINITION('international standard','ap242_managed_model_based_3d_engineering',2020,#491);
#491=APPLICATION_CONTEXT('managed model based 3d engineering');
ENDSEC;
END-ISO-10303-21;
