ISO-10303-21;
HEADER;
/*Generated by software containing ST-Developer
 * from STEP Tools, Inc. (www.steptools.com) 
 */
/*OPTION: using custom renumber hook */
/*description */
/*implementation_level */
FILE_DESCRIPTION(('STEP AP242 Edition 2','STEP AP242 Edition 2''CAx-IF Rec.Pracs.---Representation and Presentation of Product Manufa
cturing Information (PMI)---4.0---2014-10-13','STEP AP242 Edition 2''CAx-IF Rec.Pracs.---Representation and Presentation of Product Manufa
cturing Information (PMI)---4.0---2014-10-13''CAx-IF Rec.Pracs.---3D Tessellated Geometry---0.4---2014-09-14','STEP AP242 Edition 2''CAx-IF Rec.Pracs.---Representation and Presentation of Product Manufa
cturing Information (PMI)---4.0---2014-10-13''CAx-IF Rec.Pracs.---3D Tessellated Geometry---0.4---2014-09-14''2;1','STEP AP242 Edition 2''CAx-IF Rec.Pracs.---Representation and Presentation of Product Manufa
cturing Information (PMI)---4.0---2014-10-13''CAx-IF Rec.Pracs.---3D Tessellated Geometry---0.4---2014-09-14''2;1''CAx-IF Rec.Pracs.---User Defined Attributes---1.5---2016-08-15'),'2;1');
/*name */
/*time_stamp */
/*author */
/*organization */
/*preprocessor_version */
/*originating_system */
/*authorisation */
FILE_NAME('/vol/tmp/translate-16606729239107670716/knob - knob.step','2026-03-01T21:14:00',(''),(''),'ST-DEVELOPER v20','ONSHAPE BY PTC INC, 1.211','  ');
FILE_SCHEMA(('AP242_MANAGED_MODEL_BASED_3D_ENGINEERING_MIM_LF { 1 0 10303 442 3 1 4 }'));
ENDSEC;
DATA;
#10=SHAPE_REPRESENTATION_RELATIONSHIP('','',#209,#11);
#11=ADVANCED_BREP_SHAPE_REPRESENTATION('',(#207),#371);
#12=TOROIDAL_SURFACE('',#242,0.014,0.002);
#13=TOROIDAL_SURFACE('',#245,0.005,0.001);
#14=CYLINDRICAL_SURFACE('',#218,0.00075);
#15=CYLINDRICAL_SURFACE('',#221,0.00075);
#16=CYLINDRICAL_SURFACE('',#224,0.00075);
#17=CYLINDRICAL_SURFACE('',#227,0.00075);
#18=CYLINDRICAL_SURFACE('',#230,0.0016);
#19=CYLINDRICAL_SURFACE('',#233,0.014);
#20=CYLINDRICAL_SURFACE('',#240,0.016);
#21=ORIENTED_EDGE('',*,*,#55,.T.);
#22=ORIENTED_EDGE('',*,*,#56,.T.);
#23=ORIENTED_EDGE('',*,*,#57,.T.);
#24=ORIENTED_EDGE('',*,*,#58,.T.);
#25=ORIENTED_EDGE('',*,*,#59,.T.);
#26=ORIENTED_EDGE('',*,*,#60,.F.);
#27=ORIENTED_EDGE('',*,*,#61,.T.);
#28=ORIENTED_EDGE('',*,*,#55,.F.);
#29=ORIENTED_EDGE('',*,*,#61,.F.);
#30=ORIENTED_EDGE('',*,*,#62,.T.);
#31=ORIENTED_EDGE('',*,*,#56,.F.);
#32=ORIENTED_EDGE('',*,*,#62,.F.);
#33=ORIENTED_EDGE('',*,*,#63,.T.);
#34=ORIENTED_EDGE('',*,*,#57,.F.);
#35=ORIENTED_EDGE('',*,*,#63,.F.);
#36=ORIENTED_EDGE('',*,*,#64,.T.);
#37=ORIENTED_EDGE('',*,*,#58,.F.);
#38=ORIENTED_EDGE('',*,*,#64,.F.);
#39=ORIENTED_EDGE('',*,*,#65,.T.);
#40=ORIENTED_EDGE('',*,*,#59,.F.);
#41=ORIENTED_EDGE('',*,*,#65,.F.);
#42=ORIENTED_EDGE('',*,*,#66,.F.);
#43=ORIENTED_EDGE('',*,*,#60,.T.);
#44=ORIENTED_EDGE('',*,*,#66,.T.);
#45=ORIENTED_EDGE('',*,*,#67,.F.);
#46=ORIENTED_EDGE('',*,*,#68,.T.);
#47=ORIENTED_EDGE('',*,*,#69,.F.);
#48=ORIENTED_EDGE('',*,*,#70,.T.);
#49=ORIENTED_EDGE('',*,*,#67,.T.);
#50=ORIENTED_EDGE('',*,*,#70,.F.);
#51=ORIENTED_EDGE('',*,*,#68,.F.);
#52=ORIENTED_EDGE('',*,*,#71,.T.);
#53=ORIENTED_EDGE('',*,*,#69,.T.);
#54=ORIENTED_EDGE('',*,*,#71,.F.);
#55=EDGE_CURVE('',#72,#72,#88,.T.);
#56=EDGE_CURVE('',#73,#73,#89,.T.);
#57=EDGE_CURVE('',#74,#74,#90,.T.);
#58=EDGE_CURVE('',#75,#75,#91,.T.);
#59=EDGE_CURVE('',#76,#76,#92,.T.);
#60=EDGE_CURVE('',#77,#77,#93,.T.);
#61=EDGE_CURVE('',#78,#78,#94,.T.);
#62=EDGE_CURVE('',#79,#79,#95,.T.);
#63=EDGE_CURVE('',#80,#80,#96,.T.);
#64=EDGE_CURVE('',#81,#81,#97,.T.);
#65=EDGE_CURVE('',#82,#82,#98,.T.);
#66=EDGE_CURVE('',#83,#83,#99,.T.);
#67=EDGE_CURVE('',#84,#84,#100,.T.);
#68=EDGE_CURVE('',#85,#85,#101,.T.);
#69=EDGE_CURVE('',#85,#85,#102,.T.);
#70=EDGE_CURVE('',#86,#86,#103,.F.);
#71=EDGE_CURVE('',#87,#87,#104,.T.);
#72=VERTEX_POINT('',#321);
#73=VERTEX_POINT('',#323);
#74=VERTEX_POINT('',#325);
#75=VERTEX_POINT('',#327);
#76=VERTEX_POINT('',#329);
#77=VERTEX_POINT('',#331);
#78=VERTEX_POINT('',#334);
#79=VERTEX_POINT('',#338);
#80=VERTEX_POINT('',#342);
#81=VERTEX_POINT('',#346);
#82=VERTEX_POINT('',#350);
#83=VERTEX_POINT('',#354);
#84=VERTEX_POINT('',#357);
#85=VERTEX_POINT('',#360);
#86=VERTEX_POINT('',#364);
#87=VERTEX_POINT('',#368);
#88=CIRCLE('',#212,0.00075);
#89=CIRCLE('',#213,0.00075);
#90=CIRCLE('',#214,0.00075);
#91=CIRCLE('',#215,0.00075);
#92=CIRCLE('',#216,0.0016);
#93=CIRCLE('',#217,0.014);
#94=CIRCLE('',#219,0.00075);
#95=CIRCLE('',#222,0.00075);
#96=CIRCLE('',#225,0.00075);
#97=CIRCLE('',#228,0.00075);
#98=CIRCLE('',#231,0.0016);
#99=CIRCLE('',#234,0.014);
#100=CIRCLE('',#236,0.016);
#101=CIRCLE('',#238,0.014);
#102=CIRCLE('',#239,0.006);
#103=CIRCLE('',#241,0.016);
#104=CIRCLE('',#244,0.005);
#105=EDGE_LOOP('',(#21));
#106=EDGE_LOOP('',(#22));
#107=EDGE_LOOP('',(#23));
#108=EDGE_LOOP('',(#24));
#109=EDGE_LOOP('',(#25));
#110=EDGE_LOOP('',(#26));
#111=EDGE_LOOP('',(#27));
#112=EDGE_LOOP('',(#28));
#113=EDGE_LOOP('',(#29));
#114=EDGE_LOOP('',(#30));
#115=EDGE_LOOP('',(#31));
#116=EDGE_LOOP('',(#32));
#117=EDGE_LOOP('',(#33));
#118=EDGE_LOOP('',(#34));
#119=EDGE_LOOP('',(#35));
#120=EDGE_LOOP('',(#36));
#121=EDGE_LOOP('',(#37));
#122=EDGE_LOOP('',(#38));
#123=EDGE_LOOP('',(#39));
#124=EDGE_LOOP('',(#40));
#125=EDGE_LOOP('',(#41));
#126=EDGE_LOOP('',(#42));
#127=EDGE_LOOP('',(#43));
#128=EDGE_LOOP('',(#44));
#129=EDGE_LOOP('',(#45));
#130=EDGE_LOOP('',(#46,#47));
#131=EDGE_LOOP('',(#48));
#132=EDGE_LOOP('',(#49));
#133=EDGE_LOOP('',(#50));
#134=EDGE_LOOP('',(#51));
#135=EDGE_LOOP('',(#52));
#136=EDGE_LOOP('',(#53));
#137=EDGE_LOOP('',(#54));
#138=FACE_BOUND('',#105,.T.);
#139=FACE_BOUND('',#106,.T.);
#140=FACE_BOUND('',#107,.T.);
#141=FACE_BOUND('',#108,.T.);
#142=FACE_BOUND('',#109,.T.);
#143=FACE_BOUND('',#110,.T.);
#144=FACE_BOUND('',#111,.T.);
#145=FACE_BOUND('',#112,.T.);
#146=FACE_BOUND('',#113,.T.);
#147=FACE_BOUND('',#114,.T.);
#148=FACE_BOUND('',#115,.T.);
#149=FACE_BOUND('',#116,.T.);
#150=FACE_BOUND('',#117,.T.);
#151=FACE_BOUND('',#118,.T.);
#152=FACE_BOUND('',#119,.T.);
#153=FACE_BOUND('',#120,.T.);
#154=FACE_BOUND('',#121,.T.);
#155=FACE_BOUND('',#122,.T.);
#156=FACE_BOUND('',#123,.T.);
#157=FACE_BOUND('',#124,.T.);
#158=FACE_BOUND('',#125,.T.);
#159=FACE_BOUND('',#126,.T.);
#160=FACE_BOUND('',#127,.T.);
#161=FACE_BOUND('',#128,.T.);
#162=FACE_BOUND('',#129,.T.);
#163=FACE_BOUND('',#130,.T.);
#164=FACE_BOUND('',#131,.T.);
#165=FACE_BOUND('',#132,.T.);
#166=FACE_BOUND('',#133,.T.);
#167=FACE_BOUND('',#134,.T.);
#168=FACE_BOUND('',#135,.T.);
#169=FACE_BOUND('',#136,.T.);
#170=FACE_BOUND('',#137,.T.);
#171=PLANE('',#211);
#172=PLANE('',#220);
#173=PLANE('',#223);
#174=PLANE('',#226);
#175=PLANE('',#229);
#176=PLANE('',#232);
#177=PLANE('',#235);
#178=PLANE('',#237);
#179=PLANE('',#243);
#180=ADVANCED_FACE('',(#138,#139,#140,#141,#142,#143),#171,.F.);
#181=ADVANCED_FACE('',(#144,#145),#14,.T.);
#182=ADVANCED_FACE('',(#146),#172,.F.);
#183=ADVANCED_FACE('',(#147,#148),#15,.T.);
#184=ADVANCED_FACE('',(#149),#173,.F.);
#185=ADVANCED_FACE('',(#150,#151),#16,.T.);
#186=ADVANCED_FACE('',(#152),#174,.F.);
#187=ADVANCED_FACE('',(#153,#154),#17,.T.);
#188=ADVANCED_FACE('',(#155),#175,.F.);
#189=ADVANCED_FACE('',(#156,#157),#18,.T.);
#190=ADVANCED_FACE('',(#158),#176,.F.);
#191=ADVANCED_FACE('',(#159,#160),#19,.F.);
#192=ADVANCED_FACE('',(#161,#162),#177,.F.);
#193=ADVANCED_FACE('',(#163),#178,.T.);
#194=ADVANCED_FACE('',(#164,#165),#20,.T.);
#195=ADVANCED_FACE('',(#166,#167),#12,.T.);
#196=ADVANCED_FACE('',(#168),#179,.T.);
#197=ADVANCED_FACE('',(#169,#170),#13,.F.);
#198=CLOSED_SHELL('',(#180,#181,#182,#183,#184,#185,#186,#187,#188,#189,#190,#191,#192,#193,#194,#195,#196,#197));
#199=STYLED_ITEM('',(#200),#207);
#200=PRESENTATION_STYLE_ASSIGNMENT((#201));
#201=SURFACE_STYLE_USAGE(.BOTH.,#202);
#202=SURFACE_SIDE_STYLE('',(#203));
#203=SURFACE_STYLE_FILL_AREA(#204);
#204=FILL_AREA_STYLE('',(#205));
#205=FILL_AREA_STYLE_COLOUR('',#206);
#206=COLOUR_RGB('',0.301960784313725,0.301960784313725,0.301960784313725);
#207=MANIFOLD_SOLID_BREP('knob',#198);
#208=SHAPE_DEFINITION_REPRESENTATION(#376,#209);
#209=SHAPE_REPRESENTATION('knob',(#210),#371);
#210=AXIS2_PLACEMENT_3D('',#318,#246,#247);
#211=AXIS2_PLACEMENT_3D('',#319,#248,#249);
#212=AXIS2_PLACEMENT_3D('',#320,#250,#251);
#213=AXIS2_PLACEMENT_3D('',#322,#252,#253);
#214=AXIS2_PLACEMENT_3D('',#324,#254,#255);
#215=AXIS2_PLACEMENT_3D('',#326,#256,#257);
#216=AXIS2_PLACEMENT_3D('',#328,#258,#259);
#217=AXIS2_PLACEMENT_3D('',#330,#260,#261);
#218=AXIS2_PLACEMENT_3D('',#332,#262,#263);
#219=AXIS2_PLACEMENT_3D('',#333,#264,#265);
#220=AXIS2_PLACEMENT_3D('',#335,#266,#267);
#221=AXIS2_PLACEMENT_3D('',#336,#268,#269);
#222=AXIS2_PLACEMENT_3D('',#337,#270,#271);
#223=AXIS2_PLACEMENT_3D('',#339,#272,#273);
#224=AXIS2_PLACEMENT_3D('',#340,#274,#275);
#225=AXIS2_PLACEMENT_3D('',#341,#276,#277);
#226=AXIS2_PLACEMENT_3D('',#343,#278,#279);
#227=AXIS2_PLACEMENT_3D('',#344,#280,#281);
#228=AXIS2_PLACEMENT_3D('',#345,#282,#283);
#229=AXIS2_PLACEMENT_3D('',#347,#284,#285);
#230=AXIS2_PLACEMENT_3D('',#348,#286,#287);
#231=AXIS2_PLACEMENT_3D('',#349,#288,#289);
#232=AXIS2_PLACEMENT_3D('',#351,#290,#291);
#233=AXIS2_PLACEMENT_3D('',#352,#292,#293);
#234=AXIS2_PLACEMENT_3D('',#353,#294,#295);
#235=AXIS2_PLACEMENT_3D('',#355,#296,#297);
#236=AXIS2_PLACEMENT_3D('',#356,#298,#299);
#237=AXIS2_PLACEMENT_3D('',#358,#300,#301);
#238=AXIS2_PLACEMENT_3D('',#359,#302,#303);
#239=AXIS2_PLACEMENT_3D('',#361,#304,#305);
#240=AXIS2_PLACEMENT_3D('',#362,#306,#307);
#241=AXIS2_PLACEMENT_3D('',#363,#308,#309);
#242=AXIS2_PLACEMENT_3D('',#365,#310,#311);
#243=AXIS2_PLACEMENT_3D('',#366,#312,#313);
#244=AXIS2_PLACEMENT_3D('',#367,#314,#315);
#245=AXIS2_PLACEMENT_3D('',#369,#316,#317);
#246=DIRECTION('',(0.,0.,1.));
#247=DIRECTION('',(1.,0.,0.));
#248=DIRECTION('',(0.,0.,1.));
#249=DIRECTION('',(1.,0.,0.));
#250=DIRECTION('',(0.,0.,1.));
#251=DIRECTION('',(1.,0.,0.));
#252=DIRECTION('',(0.,0.,1.));
#253=DIRECTION('',(1.,0.,0.));
#254=DIRECTION('',(0.,0.,1.));
#255=DIRECTION('',(1.,0.,0.));
#256=DIRECTION('',(0.,0.,1.));
#257=DIRECTION('',(1.,0.,0.));
#258=DIRECTION('',(0.,0.,1.));
#259=DIRECTION('',(1.,0.,0.));
#260=DIRECTION('',(0.,0.,1.));
#261=DIRECTION('',(1.,0.,0.));
#262=DIRECTION('',(0.,0.,1.));
#263=DIRECTION('',(1.,0.,0.));
#264=DIRECTION('',(0.,0.,1.));
#265=DIRECTION('',(1.,0.,0.));
#266=DIRECTION('',(0.,0.,1.));
#267=DIRECTION('',(1.,0.,0.));
#268=DIRECTION('',(0.,0.,1.));
#269=DIRECTION('',(1.,0.,0.));
#270=DIRECTION('',(0.,0.,1.));
#271=DIRECTION('',(1.,0.,0.));
#272=DIRECTION('',(0.,0.,1.));
#273=DIRECTION('',(1.,0.,0.));
#274=DIRECTION('',(0.,0.,1.));
#275=DIRECTION('',(1.,0.,0.));
#276=DIRECTION('',(0.,0.,1.));
#277=DIRECTION('',(1.,0.,0.));
#278=DIRECTION('',(0.,0.,1.));
#279=DIRECTION('',(1.,0.,0.));
#280=DIRECTION('',(0.,0.,1.));
#281=DIRECTION('',(1.,0.,0.));
#282=DIRECTION('',(0.,0.,1.));
#283=DIRECTION('',(1.,0.,0.));
#284=DIRECTION('',(0.,0.,1.));
#285=DIRECTION('',(1.,0.,0.));
#286=DIRECTION('',(0.,0.,1.));
#287=DIRECTION('',(1.,0.,0.));
#288=DIRECTION('',(0.,0.,1.));
#289=DIRECTION('',(1.,0.,0.));
#290=DIRECTION('',(0.,0.,1.));
#291=DIRECTION('',(1.,0.,0.));
#292=DIRECTION('',(0.,0.,1.));
#293=DIRECTION('',(1.,0.,0.));
#294=DIRECTION('',(0.,0.,1.));
#295=DIRECTION('',(1.,0.,0.));
#296=DIRECTION('',(0.,0.,1.));
#297=DIRECTION('',(1.,0.,0.));
#298=DIRECTION('',(0.,0.,1.));
#299=DIRECTION('',(1.,0.,0.));
#300=DIRECTION('',(0.,0.,1.));
#301=DIRECTION('',(1.,0.,0.));
#302=DIRECTION('',(0.,0.,1.));
#303=DIRECTION('',(1.,0.,0.));
#304=DIRECTION('',(0.,0.,1.));
#305=DIRECTION('',(1.,0.,0.));
#306=DIRECTION('',(0.,0.,-1.));
#307=DIRECTION('',(-1.,0.,0.));
#308=DIRECTION('',(0.,0.,1.));
#309=DIRECTION('',(1.,0.,0.));
#310=DIRECTION('',(0.,0.,1.));
#311=DIRECTION('',(1.,0.,0.));
#312=DIRECTION('',(0.,0.,1.));
#313=DIRECTION('',(1.,0.,0.));
#314=DIRECTION('',(0.,0.,1.));
#315=DIRECTION('',(1.,0.,0.));
#316=DIRECTION('',(0.,0.,1.));
#317=DIRECTION('',(1.,0.,0.));
#318=CARTESIAN_POINT('',(0.,0.,0.));
#319=CARTESIAN_POINT('',(0.,0.,0.));
#320=CARTESIAN_POINT('',(0.00424264068711928,0.00424264068711928,0.));
#321=CARTESIAN_POINT('',(0.00499264068711928,0.00424264068711928,0.));
#322=CARTESIAN_POINT('',(-0.00424264068711928,0.00424264068711928,0.));
#323=CARTESIAN_POINT('',(-0.00349264068711929,0.00424264068711928,0.));
#324=CARTESIAN_POINT('',(-0.00424264068711928,-0.00424264068711928,0.));
#325=CARTESIAN_POINT('',(-0.00349264068711929,-0.00424264068711928,0.));
#326=CARTESIAN_POINT('',(0.00424264068711928,-0.00424264068711928,0.));
#327=CARTESIAN_POINT('',(0.00499264068711928,-0.00424264068711928,0.));
#328=CARTESIAN_POINT('',(0.,9.79717439317883E-20,0.));
#329=CARTESIAN_POINT('',(0.0016,9.79717439317883E-20,0.));
#330=CARTESIAN_POINT('',(0.,8.57252759403147E-19,0.));
#331=CARTESIAN_POINT('',(0.014,8.57252759403147E-19,0.));
#332=CARTESIAN_POINT('',(0.00424264068711928,0.00424264068711928,-0.001));
#333=CARTESIAN_POINT('',(0.00424264068711928,0.00424264068711928,-0.001));
#334=CARTESIAN_POINT('',(0.00499264068711928,0.00424264068711928,-0.001));
#335=CARTESIAN_POINT('',(0.,0.,-0.001));
#336=CARTESIAN_POINT('',(-0.00424264068711928,0.00424264068711928,-0.001));
#337=CARTESIAN_POINT('',(-0.00424264068711928,0.00424264068711928,-0.001));
#338=CARTESIAN_POINT('',(-0.00349264068711929,0.00424264068711928,-0.001));
#339=CARTESIAN_POINT('',(0.,0.,-0.001));
#340=CARTESIAN_POINT('',(-0.00424264068711928,-0.00424264068711928,-0.001));
#341=CARTESIAN_POINT('',(-0.00424264068711928,-0.00424264068711928,-0.001));
#342=CARTESIAN_POINT('',(-0.00349264068711929,-0.00424264068711928,-0.001));
#343=CARTESIAN_POINT('',(0.,0.,-0.001));
#344=CARTESIAN_POINT('',(0.00424264068711928,-0.00424264068711928,-0.001));
#345=CARTESIAN_POINT('',(0.00424264068711928,-0.00424264068711928,-0.001));
#346=CARTESIAN_POINT('',(0.00499264068711928,-0.00424264068711928,-0.001));
#347=CARTESIAN_POINT('',(0.,0.,-0.001));
#348=CARTESIAN_POINT('',(0.,9.79717439317883E-20,-0.001));
#349=CARTESIAN_POINT('',(0.,9.79717439317883E-20,-0.001));
#350=CARTESIAN_POINT('',(0.0016,9.79717439317883E-20,-0.001));
#351=CARTESIAN_POINT('',(0.,0.,-0.001));
#352=CARTESIAN_POINT('',(0.,8.57252759403147E-19,-0.0115));
#353=CARTESIAN_POINT('',(0.,8.57252759403147E-19,-0.0115));
#354=CARTESIAN_POINT('',(0.014,8.57252759403147E-19,-0.0115));
#355=CARTESIAN_POINT('',(0.,0.,-0.0115));
#356=CARTESIAN_POINT('',(0.,9.79717439317882E-19,-0.0115));
#357=CARTESIAN_POINT('',(0.016,9.79717439317882E-19,-0.0115));
#358=CARTESIAN_POINT('',(0.,0.,0.005));
#359=CARTESIAN_POINT('',(0.,9.79717439317882E-19,0.005));
#360=CARTESIAN_POINT('',(-0.014,-3.06161699786838E-19,0.005));
#361=CARTESIAN_POINT('',(-0.008,2.4492935982947E-19,0.005));
#362=CARTESIAN_POINT('',(0.,9.79717439317882E-19,0.005));
#363=CARTESIAN_POINT('',(0.,9.79717439317882E-19,0.003));
#364=CARTESIAN_POINT('',(0.016,9.79717439317882E-19,0.003));
#365=CARTESIAN_POINT('',(0.,9.79717439317882E-19,0.003));
#366=CARTESIAN_POINT('',(0.,1.7347234759768E-18,0.004));
#367=CARTESIAN_POINT('',(-0.008,2.4492935982947E-19,0.004));
#368=CARTESIAN_POINT('',(-0.003,2.4492935982947E-19,0.004));
#369=CARTESIAN_POINT('',(-0.008,2.4492935982947E-19,0.005));
#370=MECHANICAL_DESIGN_GEOMETRIC_PRESENTATION_REPRESENTATION('',(#199),#371);
#371=(
GEOMETRIC_REPRESENTATION_CONTEXT(3)
GLOBAL_UNCERTAINTY_ASSIGNED_CONTEXT((#372))
GLOBAL_UNIT_ASSIGNED_CONTEXT((#375,#374,#373))
REPRESENTATION_CONTEXT('knob','TOP_LEVEL_ASSEMBLY_PART')
);
#372=UNCERTAINTY_MEASURE_WITH_UNIT(LENGTH_MEASURE(1.E-08),#375,'DISTANCE_ACCURACY_VALUE','Maximum Tolerance applied to model');
#373=(
NAMED_UNIT(*)
SI_UNIT($,.STERADIAN.)
SOLID_ANGLE_UNIT()
);
#374=(
NAMED_UNIT(*)
PLANE_ANGLE_UNIT()
SI_UNIT($,.RADIAN.)
);
#375=(
LENGTH_UNIT()
NAMED_UNIT(*)
SI_UNIT($,.METRE.)
);
#376=PRODUCT_DEFINITION_SHAPE('','',#377);
#377=PRODUCT_DEFINITION('','',#379,#378);
#378=PRODUCT_DEFINITION_CONTEXT('',#385,'design');
#379=PRODUCT_DEFINITION_FORMATION_WITH_SPECIFIED_SOURCE('','',#381,.NOT_KNOWN.);
#380=PRODUCT_RELATED_PRODUCT_CATEGORY('','',(#381));
#381=PRODUCT('knob','knob','knob',(#383));
#382=PRODUCT_CATEGORY('','');
#383=PRODUCT_CONTEXT('',#385,'mechanical');
#384=APPLICATION_PROTOCOL_DEFINITION('international standard','ap242_managed_model_based_3d_engineering',2020,#385);
#385=APPLICATION_CONTEXT('managed model based 3d engineering');
ENDSEC;
END-ISO-10303-21;
