ISO-10303-21;
HEADER;
/*Generated by software containing ST-Developer
 * from STEP Tools, Inc. (www.steptools.com) 
 */
/*OPTION: using custom renumber hook */
/*description */
/*implementation_level */
FILE_DESCRIPTION(('STEP AP242 Edition 2','STEP AP242 Edition 2''CAx-IF Rec.Pracs.---Representation and Presentation of Product Manufa
cturing Information (PMI)---4.0---2014-10-13','STEP AP242 Edition 2''CAx-IF Rec.Pracs.---Representation and Presentation of Product Manufa
cturing Information (PMI)---4.0---2014-10-13''CAx-IF Rec.Pracs.---3D Tessellated Geometry---0.4---2014-09-14','STEP AP242 Edition 2''CAx-IF Rec.Pracs.---Representation and Presentation of Product Manufa
cturing Information (PMI)---4.0---2014-10-13''CAx-IF Rec.Pracs.---3D Tessellated Geometry---0.4---2014-09-14''2;1','STEP AP242 Edition 2''CAx-IF Rec.Pracs.---Representation and Presentation of Product Manufa
cturing Information (PMI)---4.0---2014-10-13''CAx-IF Rec.Pracs.---3D Tessellated Geometry---0.4---2014-09-14''2;1''CAx-IF Rec.Pracs.---User Defined Attributes---1.5---2016-08-15'),'2;1');
/*name */
/*time_stamp */
/*author */
/*organization */
/*preprocessor_version */
/*originating_system */
/*authorisation */
FILE_NAME('/vol/tmp/translate-5314471482008468194/battery-cover - left-battery-cover.step','2026-03-01T21:16:28',(''),(''),'ST-DEVELOPER v20','ONSHAPE BY PTC INC, 1.211','  ');
FILE_SCHEMA(('AP242_MANAGED_MODEL_BASED_3D_ENGINEERING_MIM_LF { 1 0 10303 442 3 1 4 }'));
ENDSEC;
DATA;
#10=SHAPE_REPRESENTATION_RELATIONSHIP('','',#479,#11);
#11=ADVANCED_BREP_SHAPE_REPRESENTATION('',(#477),#817);
#12=CYLINDRICAL_SURFACE('',#488,0.0027);
#13=CYLINDRICAL_SURFACE('',#491,0.0023);
#14=CYLINDRICAL_SURFACE('',#495,0.0037);
#15=CYLINDRICAL_SURFACE('',#499,0.0027);
#16=CYLINDRICAL_SURFACE('',#502,0.0023);
#17=CYLINDRICAL_SURFACE('',#506,0.0037);
#18=CYLINDRICAL_SURFACE('',#509,0.00125);
#19=CYLINDRICAL_SURFACE('',#511,0.00125);
#20=CYLINDRICAL_SURFACE('',#518,0.0021);
#21=CYLINDRICAL_SURFACE('',#520,0.0021);
#22=CYLINDRICAL_SURFACE('',#528,0.0027);
#23=CYLINDRICAL_SURFACE('',#530,0.0027);
#24=CYLINDRICAL_SURFACE('',#532,0.0027);
#25=CYLINDRICAL_SURFACE('',#535,0.0027);
#26=LINE('',#694,#60);
#27=LINE('',#697,#61);
#28=LINE('',#699,#62);
#29=LINE('',#701,#63);
#30=LINE('',#703,#64);
#31=LINE('',#709,#65);
#32=LINE('',#715,#66);
#33=LINE('',#718,#67);
#34=LINE('',#719,#68);
#35=LINE('',#721,#69);
#36=LINE('',#727,#70);
#37=LINE('',#730,#71);
#38=LINE('',#731,#72);
#39=LINE('',#733,#73);
#40=LINE('',#739,#74);
#41=LINE('',#745,#75);
#42=LINE('',#748,#76);
#43=LINE('',#749,#77);
#44=LINE('',#760,#78);
#45=LINE('',#765,#79);
#46=LINE('',#769,#80);
#47=LINE('',#773,#81);
#48=LINE('',#787,#82);
#49=LINE('',#791,#83);
#50=LINE('',#795,#84);
#51=LINE('',#799,#85);
#52=LINE('',#801,#86);
#53=LINE('',#802,#87);
#54=LINE('',#804,#88);
#55=LINE('',#806,#89);
#56=LINE('',#808,#90);
#57=LINE('',#810,#91);
#58=LINE('',#812,#92);
#59=LINE('',#814,#93);
#60=VECTOR('',#552,1.);
#61=VECTOR('',#553,1.);
#62=VECTOR('',#554,1.);
#63=VECTOR('',#555,1.);
#64=VECTOR('',#558,1.);
#65=VECTOR('',#565,1.);
#66=VECTOR('',#572,1.);
#67=VECTOR('',#573,1.);
#68=VECTOR('',#574,1.);
#69=VECTOR('',#577,1.);
#70=VECTOR('',#584,1.);
#71=VECTOR('',#585,1.);
#72=VECTOR('',#586,1.);
#73=VECTOR('',#589,1.);
#74=VECTOR('',#596,1.);
#75=VECTOR('',#603,1.);
#76=VECTOR('',#604,1.);
#77=VECTOR('',#605,1.);
#78=VECTOR('',#622,1.);
#79=VECTOR('',#625,1.);
#80=VECTOR('',#628,1.);
#81=VECTOR('',#631,1.);
#82=VECTOR('',#648,1.);
#83=VECTOR('',#651,1.);
#84=VECTOR('',#654,1.);
#85=VECTOR('',#657,1.);
#86=VECTOR('',#660,1.);
#87=VECTOR('',#661,1.);
#88=VECTOR('',#664,1.);
#89=VECTOR('',#667,1.);
#90=VECTOR('',#670,1.);
#91=VECTOR('',#673,1.);
#92=VECTOR('',#676,1.);
#93=VECTOR('',#679,1.);
#94=ORIENTED_EDGE('',*,*,#218,.T.);
#95=ORIENTED_EDGE('',*,*,#219,.F.);
#96=ORIENTED_EDGE('',*,*,#220,.T.);
#97=ORIENTED_EDGE('',*,*,#221,.F.);
#98=ORIENTED_EDGE('',*,*,#222,.F.);
#99=ORIENTED_EDGE('',*,*,#223,.F.);
#100=ORIENTED_EDGE('',*,*,#224,.T.);
#101=ORIENTED_EDGE('',*,*,#225,.T.);
#102=ORIENTED_EDGE('',*,*,#226,.F.);
#103=ORIENTED_EDGE('',*,*,#227,.F.);
#104=ORIENTED_EDGE('',*,*,#222,.T.);
#105=ORIENTED_EDGE('',*,*,#228,.T.);
#106=ORIENTED_EDGE('',*,*,#229,.F.);
#107=ORIENTED_EDGE('',*,*,#230,.T.);
#108=ORIENTED_EDGE('',*,*,#226,.T.);
#109=ORIENTED_EDGE('',*,*,#231,.F.);
#110=ORIENTED_EDGE('',*,*,#232,.F.);
#111=ORIENTED_EDGE('',*,*,#233,.F.);
#112=ORIENTED_EDGE('',*,*,#229,.T.);
#113=ORIENTED_EDGE('',*,*,#234,.T.);
#114=ORIENTED_EDGE('',*,*,#235,.F.);
#115=ORIENTED_EDGE('',*,*,#236,.F.);
#116=ORIENTED_EDGE('',*,*,#232,.T.);
#117=ORIENTED_EDGE('',*,*,#237,.T.);
#118=ORIENTED_EDGE('',*,*,#238,.F.);
#119=ORIENTED_EDGE('',*,*,#239,.T.);
#120=ORIENTED_EDGE('',*,*,#235,.T.);
#121=ORIENTED_EDGE('',*,*,#240,.F.);
#122=ORIENTED_EDGE('',*,*,#241,.F.);
#123=ORIENTED_EDGE('',*,*,#242,.F.);
#124=ORIENTED_EDGE('',*,*,#238,.T.);
#125=ORIENTED_EDGE('',*,*,#243,.T.);
#126=ORIENTED_EDGE('',*,*,#244,.F.);
#127=ORIENTED_EDGE('',*,*,#245,.T.);
#128=ORIENTED_EDGE('',*,*,#241,.T.);
#129=ORIENTED_EDGE('',*,*,#246,.F.);
#130=ORIENTED_EDGE('',*,*,#247,.F.);
#131=ORIENTED_EDGE('',*,*,#248,.F.);
#132=ORIENTED_EDGE('',*,*,#244,.T.);
#133=ORIENTED_EDGE('',*,*,#249,.T.);
#134=ORIENTED_EDGE('',*,*,#224,.F.);
#135=ORIENTED_EDGE('',*,*,#250,.F.);
#136=ORIENTED_EDGE('',*,*,#247,.T.);
#137=ORIENTED_EDGE('',*,*,#251,.T.);
#138=ORIENTED_EDGE('',*,*,#252,.T.);
#139=ORIENTED_EDGE('',*,*,#218,.F.);
#140=ORIENTED_EDGE('',*,*,#253,.T.);
#141=ORIENTED_EDGE('',*,*,#220,.F.);
#142=ORIENTED_EDGE('',*,*,#254,.F.);
#143=ORIENTED_EDGE('',*,*,#255,.T.);
#144=ORIENTED_EDGE('',*,*,#256,.T.);
#145=ORIENTED_EDGE('',*,*,#257,.T.);
#146=ORIENTED_EDGE('',*,*,#258,.T.);
#147=ORIENTED_EDGE('',*,*,#259,.T.);
#148=ORIENTED_EDGE('',*,*,#260,.F.);
#149=ORIENTED_EDGE('',*,*,#261,.T.);
#150=ORIENTED_EDGE('',*,*,#252,.F.);
#151=ORIENTED_EDGE('',*,*,#223,.T.);
#152=ORIENTED_EDGE('',*,*,#227,.T.);
#153=ORIENTED_EDGE('',*,*,#230,.F.);
#154=ORIENTED_EDGE('',*,*,#233,.T.);
#155=ORIENTED_EDGE('',*,*,#236,.T.);
#156=ORIENTED_EDGE('',*,*,#239,.F.);
#157=ORIENTED_EDGE('',*,*,#242,.T.);
#158=ORIENTED_EDGE('',*,*,#245,.F.);
#159=ORIENTED_EDGE('',*,*,#248,.T.);
#160=ORIENTED_EDGE('',*,*,#250,.T.);
#161=ORIENTED_EDGE('',*,*,#253,.F.);
#162=ORIENTED_EDGE('',*,*,#262,.F.);
#163=ORIENTED_EDGE('',*,*,#221,.T.);
#164=ORIENTED_EDGE('',*,*,#263,.F.);
#165=ORIENTED_EDGE('',*,*,#219,.T.);
#166=ORIENTED_EDGE('',*,*,#263,.T.);
#167=ORIENTED_EDGE('',*,*,#262,.T.);
#168=ORIENTED_EDGE('',*,*,#225,.F.);
#169=ORIENTED_EDGE('',*,*,#251,.F.);
#170=ORIENTED_EDGE('',*,*,#249,.F.);
#171=ORIENTED_EDGE('',*,*,#246,.T.);
#172=ORIENTED_EDGE('',*,*,#243,.F.);
#173=ORIENTED_EDGE('',*,*,#240,.T.);
#174=ORIENTED_EDGE('',*,*,#237,.F.);
#175=ORIENTED_EDGE('',*,*,#234,.F.);
#176=ORIENTED_EDGE('',*,*,#231,.T.);
#177=ORIENTED_EDGE('',*,*,#228,.F.);
#178=ORIENTED_EDGE('',*,*,#264,.F.);
#179=ORIENTED_EDGE('',*,*,#265,.T.);
#180=ORIENTED_EDGE('',*,*,#266,.F.);
#181=ORIENTED_EDGE('',*,*,#267,.F.);
#182=ORIENTED_EDGE('',*,*,#268,.F.);
#183=ORIENTED_EDGE('',*,*,#269,.F.);
#184=ORIENTED_EDGE('',*,*,#270,.F.);
#185=ORIENTED_EDGE('',*,*,#271,.T.);
#186=ORIENTED_EDGE('',*,*,#272,.F.);
#187=ORIENTED_EDGE('',*,*,#264,.T.);
#188=ORIENTED_EDGE('',*,*,#273,.T.);
#189=ORIENTED_EDGE('',*,*,#261,.F.);
#190=ORIENTED_EDGE('',*,*,#271,.F.);
#191=ORIENTED_EDGE('',*,*,#274,.T.);
#192=ORIENTED_EDGE('',*,*,#254,.T.);
#193=ORIENTED_EDGE('',*,*,#273,.F.);
#194=ORIENTED_EDGE('',*,*,#274,.F.);
#195=ORIENTED_EDGE('',*,*,#270,.T.);
#196=ORIENTED_EDGE('',*,*,#275,.T.);
#197=ORIENTED_EDGE('',*,*,#255,.F.);
#198=ORIENTED_EDGE('',*,*,#275,.F.);
#199=ORIENTED_EDGE('',*,*,#269,.T.);
#200=ORIENTED_EDGE('',*,*,#276,.T.);
#201=ORIENTED_EDGE('',*,*,#256,.F.);
#202=ORIENTED_EDGE('',*,*,#276,.F.);
#203=ORIENTED_EDGE('',*,*,#268,.T.);
#204=ORIENTED_EDGE('',*,*,#277,.T.);
#205=ORIENTED_EDGE('',*,*,#257,.F.);
#206=ORIENTED_EDGE('',*,*,#265,.F.);
#207=ORIENTED_EDGE('',*,*,#272,.T.);
#208=ORIENTED_EDGE('',*,*,#260,.T.);
#209=ORIENTED_EDGE('',*,*,#278,.F.);
#210=ORIENTED_EDGE('',*,*,#277,.F.);
#211=ORIENTED_EDGE('',*,*,#267,.T.);
#212=ORIENTED_EDGE('',*,*,#279,.T.);
#213=ORIENTED_EDGE('',*,*,#258,.F.);
#214=ORIENTED_EDGE('',*,*,#279,.F.);
#215=ORIENTED_EDGE('',*,*,#266,.T.);
#216=ORIENTED_EDGE('',*,*,#278,.T.);
#217=ORIENTED_EDGE('',*,*,#259,.F.);
#218=EDGE_CURVE('',#280,#280,#324,.T.);
#219=EDGE_CURVE('',#281,#281,#325,.T.);
#220=EDGE_CURVE('',#282,#282,#326,.T.);
#221=EDGE_CURVE('',#283,#283,#327,.T.);
#222=EDGE_CURVE('',#284,#285,#26,.T.);
#223=EDGE_CURVE('',#286,#284,#27,.T.);
#224=EDGE_CURVE('',#286,#287,#28,.T.);
#225=EDGE_CURVE('',#287,#285,#29,.T.);
#226=EDGE_CURVE('',#288,#289,#30,.T.);
#227=EDGE_CURVE('',#284,#288,#328,.T.);
#228=EDGE_CURVE('',#285,#289,#329,.T.);
#229=EDGE_CURVE('',#290,#291,#31,.T.);
#230=EDGE_CURVE('',#290,#288,#330,.T.);
#231=EDGE_CURVE('',#291,#289,#331,.T.);
#232=EDGE_CURVE('',#292,#293,#32,.T.);
#233=EDGE_CURVE('',#290,#292,#33,.T.);
#234=EDGE_CURVE('',#291,#293,#34,.T.);
#235=EDGE_CURVE('',#294,#295,#35,.T.);
#236=EDGE_CURVE('',#292,#294,#332,.T.);
#237=EDGE_CURVE('',#293,#295,#333,.T.);
#238=EDGE_CURVE('',#296,#297,#36,.T.);
#239=EDGE_CURVE('',#296,#294,#37,.T.);
#240=EDGE_CURVE('',#297,#295,#38,.T.);
#241=EDGE_CURVE('',#298,#299,#39,.T.);
#242=EDGE_CURVE('',#296,#298,#334,.T.);
#243=EDGE_CURVE('',#297,#299,#335,.T.);
#244=EDGE_CURVE('',#300,#301,#40,.T.);
#245=EDGE_CURVE('',#300,#298,#336,.T.);
#246=EDGE_CURVE('',#301,#299,#337,.T.);
#247=EDGE_CURVE('',#302,#303,#41,.T.);
#248=EDGE_CURVE('',#300,#302,#42,.T.);
#249=EDGE_CURVE('',#301,#303,#43,.T.);
#250=EDGE_CURVE('',#302,#286,#338,.T.);
#251=EDGE_CURVE('',#303,#287,#339,.T.);
#252=EDGE_CURVE('',#304,#304,#340,.T.);
#253=EDGE_CURVE('',#305,#305,#341,.T.);
#254=EDGE_CURVE('',#306,#307,#44,.T.);
#255=EDGE_CURVE('',#306,#308,#342,.T.);
#256=EDGE_CURVE('',#308,#309,#45,.T.);
#257=EDGE_CURVE('',#309,#310,#343,.T.);
#258=EDGE_CURVE('',#310,#311,#46,.T.);
#259=EDGE_CURVE('',#311,#312,#344,.T.);
#260=EDGE_CURVE('',#313,#312,#47,.T.);
#261=EDGE_CURVE('',#313,#307,#345,.T.);
#262=EDGE_CURVE('',#314,#314,#346,.T.);
#263=EDGE_CURVE('',#315,#315,#347,.T.);
#264=EDGE_CURVE('',#316,#317,#348,.F.);
#265=EDGE_CURVE('',#316,#318,#48,.T.);
#266=EDGE_CURVE('',#319,#318,#349,.F.);
#267=EDGE_CURVE('',#320,#319,#49,.T.);
#268=EDGE_CURVE('',#321,#320,#350,.F.);
#269=EDGE_CURVE('',#322,#321,#50,.T.);
#270=EDGE_CURVE('',#323,#322,#351,.F.);
#271=EDGE_CURVE('',#323,#317,#51,.T.);
#272=EDGE_CURVE('',#316,#313,#52,.T.);
#273=EDGE_CURVE('',#317,#307,#53,.T.);
#274=EDGE_CURVE('',#323,#306,#54,.T.);
#275=EDGE_CURVE('',#322,#308,#55,.T.);
#276=EDGE_CURVE('',#321,#309,#56,.T.);
#277=EDGE_CURVE('',#320,#310,#57,.T.);
#278=EDGE_CURVE('',#318,#312,#58,.T.);
#279=EDGE_CURVE('',#319,#311,#59,.T.);
#280=VERTEX_POINT('',#685);
#281=VERTEX_POINT('',#687);
#282=VERTEX_POINT('',#690);
#283=VERTEX_POINT('',#692);
#284=VERTEX_POINT('',#695);
#285=VERTEX_POINT('',#696);
#286=VERTEX_POINT('',#698);
#287=VERTEX_POINT('',#700);
#288=VERTEX_POINT('',#704);
#289=VERTEX_POINT('',#705);
#290=VERTEX_POINT('',#710);
#291=VERTEX_POINT('',#711);
#292=VERTEX_POINT('',#716);
#293=VERTEX_POINT('',#717);
#294=VERTEX_POINT('',#722);
#295=VERTEX_POINT('',#723);
#296=VERTEX_POINT('',#728);
#297=VERTEX_POINT('',#729);
#298=VERTEX_POINT('',#734);
#299=VERTEX_POINT('',#735);
#300=VERTEX_POINT('',#740);
#301=VERTEX_POINT('',#741);
#302=VERTEX_POINT('',#746);
#303=VERTEX_POINT('',#747);
#304=VERTEX_POINT('',#755);
#305=VERTEX_POINT('',#758);
#306=VERTEX_POINT('',#761);
#307=VERTEX_POINT('',#762);
#308=VERTEX_POINT('',#764);
#309=VERTEX_POINT('',#766);
#310=VERTEX_POINT('',#768);
#311=VERTEX_POINT('',#770);
#312=VERTEX_POINT('',#772);
#313=VERTEX_POINT('',#774);
#314=VERTEX_POINT('',#778);
#315=VERTEX_POINT('',#781);
#316=VERTEX_POINT('',#785);
#317=VERTEX_POINT('',#786);
#318=VERTEX_POINT('',#788);
#319=VERTEX_POINT('',#790);
#320=VERTEX_POINT('',#792);
#321=VERTEX_POINT('',#794);
#322=VERTEX_POINT('',#796);
#323=VERTEX_POINT('',#798);
#324=CIRCLE('',#482,0.00125);
#325=CIRCLE('',#483,0.0021);
#326=CIRCLE('',#485,0.00125);
#327=CIRCLE('',#486,0.0021);
#328=CIRCLE('',#489,0.0027);
#329=CIRCLE('',#490,0.0027);
#330=CIRCLE('',#492,0.0023);
#331=CIRCLE('',#493,0.0023);
#332=CIRCLE('',#496,0.0037);
#333=CIRCLE('',#497,0.0037);
#334=CIRCLE('',#500,0.0027);
#335=CIRCLE('',#501,0.0027);
#336=CIRCLE('',#503,0.0023);
#337=CIRCLE('',#504,0.0023);
#338=CIRCLE('',#507,0.0037);
#339=CIRCLE('',#508,0.0037);
#340=CIRCLE('',#510,0.00125);
#341=CIRCLE('',#512,0.00125);
#342=CIRCLE('',#514,0.0027);
#343=CIRCLE('',#515,0.0027);
#344=CIRCLE('',#516,0.0027);
#345=CIRCLE('',#517,0.0027);
#346=CIRCLE('',#519,0.0021);
#347=CIRCLE('',#521,0.0021);
#348=CIRCLE('',#524,0.0027);
#349=CIRCLE('',#525,0.0027);
#350=CIRCLE('',#526,0.0027);
#351=CIRCLE('',#527,0.0027);
#352=EDGE_LOOP('',(#94));
#353=EDGE_LOOP('',(#95));
#354=EDGE_LOOP('',(#96));
#355=EDGE_LOOP('',(#97));
#356=EDGE_LOOP('',(#98,#99,#100,#101));
#357=EDGE_LOOP('',(#102,#103,#104,#105));
#358=EDGE_LOOP('',(#106,#107,#108,#109));
#359=EDGE_LOOP('',(#110,#111,#112,#113));
#360=EDGE_LOOP('',(#114,#115,#116,#117));
#361=EDGE_LOOP('',(#118,#119,#120,#121));
#362=EDGE_LOOP('',(#122,#123,#124,#125));
#363=EDGE_LOOP('',(#126,#127,#128,#129));
#364=EDGE_LOOP('',(#130,#131,#132,#133));
#365=EDGE_LOOP('',(#134,#135,#136,#137));
#366=EDGE_LOOP('',(#138));
#367=EDGE_LOOP('',(#139));
#368=EDGE_LOOP('',(#140));
#369=EDGE_LOOP('',(#141));
#370=EDGE_LOOP('',(#142,#143,#144,#145,#146,#147,#148,#149));
#371=EDGE_LOOP('',(#150));
#372=EDGE_LOOP('',(#151,#152,#153,#154,#155,#156,#157,#158,#159,#160));
#373=EDGE_LOOP('',(#161));
#374=EDGE_LOOP('',(#162));
#375=EDGE_LOOP('',(#163));
#376=EDGE_LOOP('',(#164));
#377=EDGE_LOOP('',(#165));
#378=EDGE_LOOP('',(#166));
#379=EDGE_LOOP('',(#167));
#380=EDGE_LOOP('',(#168,#169,#170,#171,#172,#173,#174,#175,#176,#177));
#381=EDGE_LOOP('',(#178,#179,#180,#181,#182,#183,#184,#185));
#382=EDGE_LOOP('',(#186,#187,#188,#189));
#383=EDGE_LOOP('',(#190,#191,#192,#193));
#384=EDGE_LOOP('',(#194,#195,#196,#197));
#385=EDGE_LOOP('',(#198,#199,#200,#201));
#386=EDGE_LOOP('',(#202,#203,#204,#205));
#387=EDGE_LOOP('',(#206,#207,#208,#209));
#388=EDGE_LOOP('',(#210,#211,#212,#213));
#389=EDGE_LOOP('',(#214,#215,#216,#217));
#390=FACE_BOUND('',#352,.T.);
#391=FACE_BOUND('',#353,.T.);
#392=FACE_BOUND('',#354,.T.);
#393=FACE_BOUND('',#355,.T.);
#394=FACE_BOUND('',#356,.T.);
#395=FACE_BOUND('',#357,.T.);
#396=FACE_BOUND('',#358,.T.);
#397=FACE_BOUND('',#359,.T.);
#398=FACE_BOUND('',#360,.T.);
#399=FACE_BOUND('',#361,.T.);
#400=FACE_BOUND('',#362,.T.);
#401=FACE_BOUND('',#363,.T.);
#402=FACE_BOUND('',#364,.T.);
#403=FACE_BOUND('',#365,.T.);
#404=FACE_BOUND('',#366,.T.);
#405=FACE_BOUND('',#367,.T.);
#406=FACE_BOUND('',#368,.T.);
#407=FACE_BOUND('',#369,.T.);
#408=FACE_BOUND('',#370,.T.);
#409=FACE_BOUND('',#371,.T.);
#410=FACE_BOUND('',#372,.T.);
#411=FACE_BOUND('',#373,.T.);
#412=FACE_BOUND('',#374,.T.);
#413=FACE_BOUND('',#375,.T.);
#414=FACE_BOUND('',#376,.T.);
#415=FACE_BOUND('',#377,.T.);
#416=FACE_BOUND('',#378,.T.);
#417=FACE_BOUND('',#379,.T.);
#418=FACE_BOUND('',#380,.T.);
#419=FACE_BOUND('',#381,.T.);
#420=FACE_BOUND('',#382,.T.);
#421=FACE_BOUND('',#383,.T.);
#422=FACE_BOUND('',#384,.T.);
#423=FACE_BOUND('',#385,.T.);
#424=FACE_BOUND('',#386,.T.);
#425=FACE_BOUND('',#387,.T.);
#426=FACE_BOUND('',#388,.T.);
#427=FACE_BOUND('',#389,.T.);
#428=PLANE('',#481);
#429=PLANE('',#484);
#430=PLANE('',#487);
#431=PLANE('',#494);
#432=PLANE('',#498);
#433=PLANE('',#505);
#434=PLANE('',#513);
#435=PLANE('',#522);
#436=PLANE('',#523);
#437=PLANE('',#529);
#438=PLANE('',#531);
#439=PLANE('',#533);
#440=PLANE('',#534);
#441=ADVANCED_FACE('',(#390,#391),#428,.T.);
#442=ADVANCED_FACE('',(#392,#393),#429,.T.);
#443=ADVANCED_FACE('',(#394),#430,.T.);
#444=ADVANCED_FACE('',(#395),#12,.T.);
#445=ADVANCED_FACE('',(#396),#13,.F.);
#446=ADVANCED_FACE('',(#397),#431,.T.);
#447=ADVANCED_FACE('',(#398),#14,.T.);
#448=ADVANCED_FACE('',(#399),#432,.F.);
#449=ADVANCED_FACE('',(#400),#15,.T.);
#450=ADVANCED_FACE('',(#401),#16,.F.);
#451=ADVANCED_FACE('',(#402),#433,.T.);
#452=ADVANCED_FACE('',(#403),#17,.T.);
#453=ADVANCED_FACE('',(#404,#405),#18,.F.);
#454=ADVANCED_FACE('',(#406,#407),#19,.F.);
#455=ADVANCED_FACE('',(#408,#409,#410,#411),#434,.F.);
#456=ADVANCED_FACE('',(#412,#413),#20,.F.);
#457=ADVANCED_FACE('',(#414,#415),#21,.F.);
#458=ADVANCED_FACE('',(#416,#417,#418),#435,.T.);
#459=ADVANCED_FACE('',(#419),#436,.F.);
#460=ADVANCED_FACE('',(#420),#22,.F.);
#461=ADVANCED_FACE('',(#421),#437,.T.);
#462=ADVANCED_FACE('',(#422),#23,.F.);
#463=ADVANCED_FACE('',(#423),#438,.F.);
#464=ADVANCED_FACE('',(#424),#24,.F.);
#465=ADVANCED_FACE('',(#425),#439,.T.);
#466=ADVANCED_FACE('',(#426),#440,.F.);
#467=ADVANCED_FACE('',(#427),#25,.F.);
#468=CLOSED_SHELL('',(#441,#442,#443,#444,#445,#446,#447,#448,#449,#450,#451,#452,#453,#454,#455,#456,#457,#458,#459,#460,#461,#462,#463,#464,#465,#466,#467));
#469=STYLED_ITEM('',(#470),#477);
#470=PRESENTATION_STYLE_ASSIGNMENT((#471));
#471=SURFACE_STYLE_USAGE(.BOTH.,#472);
#472=SURFACE_SIDE_STYLE('',(#473));
#473=SURFACE_STYLE_FILL_AREA(#474);
#474=FILL_AREA_STYLE('',(#475));
#475=FILL_AREA_STYLE_COLOUR('',#476);
#476=COLOUR_RGB('',0.501960784313726,0.501960784313726,0.501960784313726);
#477=MANIFOLD_SOLID_BREP('left-battery-cover',#468);
#478=SHAPE_DEFINITION_REPRESENTATION(#822,#479);
#479=SHAPE_REPRESENTATION('left-battery-cover',(#480),#817);
#480=AXIS2_PLACEMENT_3D('',#682,#536,#537);
#481=AXIS2_PLACEMENT_3D('',#683,#538,#539);
#482=AXIS2_PLACEMENT_3D('',#684,#540,#541);
#483=AXIS2_PLACEMENT_3D('',#686,#542,#543);
#484=AXIS2_PLACEMENT_3D('',#688,#544,#545);
#485=AXIS2_PLACEMENT_3D('',#689,#546,#547);
#486=AXIS2_PLACEMENT_3D('',#691,#548,#549);
#487=AXIS2_PLACEMENT_3D('',#693,#550,#551);
#488=AXIS2_PLACEMENT_3D('',#702,#556,#557);
#489=AXIS2_PLACEMENT_3D('',#706,#559,#560);
#490=AXIS2_PLACEMENT_3D('',#707,#561,#562);
#491=AXIS2_PLACEMENT_3D('',#708,#563,#564);
#492=AXIS2_PLACEMENT_3D('',#712,#566,#567);
#493=AXIS2_PLACEMENT_3D('',#713,#568,#569);
#494=AXIS2_PLACEMENT_3D('',#714,#570,#571);
#495=AXIS2_PLACEMENT_3D('',#720,#575,#576);
#496=AXIS2_PLACEMENT_3D('',#724,#578,#579);
#497=AXIS2_PLACEMENT_3D('',#725,#580,#581);
#498=AXIS2_PLACEMENT_3D('',#726,#582,#583);
#499=AXIS2_PLACEMENT_3D('',#732,#587,#588);
#500=AXIS2_PLACEMENT_3D('',#736,#590,#591);
#501=AXIS2_PLACEMENT_3D('',#737,#592,#593);
#502=AXIS2_PLACEMENT_3D('',#738,#594,#595);
#503=AXIS2_PLACEMENT_3D('',#742,#597,#598);
#504=AXIS2_PLACEMENT_3D('',#743,#599,#600);
#505=AXIS2_PLACEMENT_3D('',#744,#601,#602);
#506=AXIS2_PLACEMENT_3D('',#750,#606,#607);
#507=AXIS2_PLACEMENT_3D('',#751,#608,#609);
#508=AXIS2_PLACEMENT_3D('',#752,#610,#611);
#509=AXIS2_PLACEMENT_3D('',#753,#612,#613);
#510=AXIS2_PLACEMENT_3D('',#754,#614,#615);
#511=AXIS2_PLACEMENT_3D('',#756,#616,#617);
#512=AXIS2_PLACEMENT_3D('',#757,#618,#619);
#513=AXIS2_PLACEMENT_3D('',#759,#620,#621);
#514=AXIS2_PLACEMENT_3D('',#763,#623,#624);
#515=AXIS2_PLACEMENT_3D('',#767,#626,#627);
#516=AXIS2_PLACEMENT_3D('',#771,#629,#630);
#517=AXIS2_PLACEMENT_3D('',#775,#632,#633);
#518=AXIS2_PLACEMENT_3D('',#776,#634,#635);
#519=AXIS2_PLACEMENT_3D('',#777,#636,#637);
#520=AXIS2_PLACEMENT_3D('',#779,#638,#639);
#521=AXIS2_PLACEMENT_3D('',#780,#640,#641);
#522=AXIS2_PLACEMENT_3D('',#782,#642,#643);
#523=AXIS2_PLACEMENT_3D('',#783,#644,#645);
#524=AXIS2_PLACEMENT_3D('',#784,#646,#647);
#525=AXIS2_PLACEMENT_3D('',#789,#649,#650);
#526=AXIS2_PLACEMENT_3D('',#793,#652,#653);
#527=AXIS2_PLACEMENT_3D('',#797,#655,#656);
#528=AXIS2_PLACEMENT_3D('',#800,#658,#659);
#529=AXIS2_PLACEMENT_3D('',#803,#662,#663);
#530=AXIS2_PLACEMENT_3D('',#805,#665,#666);
#531=AXIS2_PLACEMENT_3D('',#807,#668,#669);
#532=AXIS2_PLACEMENT_3D('',#809,#671,#672);
#533=AXIS2_PLACEMENT_3D('',#811,#674,#675);
#534=AXIS2_PLACEMENT_3D('',#813,#677,#678);
#535=AXIS2_PLACEMENT_3D('',#815,#680,#681);
#536=DIRECTION('',(0.,0.,1.));
#537=DIRECTION('',(1.,0.,0.));
#538=DIRECTION('',(0.,0.,-1.));
#539=DIRECTION('',(-1.,0.,0.));
#540=DIRECTION('',(0.,0.,1.));
#541=DIRECTION('',(1.,0.,0.));
#542=DIRECTION('',(0.,0.,1.));
#543=DIRECTION('',(1.,0.,0.));
#544=DIRECTION('',(0.,0.,-1.));
#545=DIRECTION('',(-1.,0.,0.));
#546=DIRECTION('',(0.,0.,1.));
#547=DIRECTION('',(1.,0.,0.));
#548=DIRECTION('',(0.,0.,1.));
#549=DIRECTION('',(1.,0.,0.));
#550=DIRECTION('',(0.,1.,0.));
#551=DIRECTION('',(0.,0.,1.));
#552=DIRECTION('',(0.,0.,-1.));
#553=DIRECTION('',(-1.,0.,0.));
#554=DIRECTION('',(0.,0.,-1.));
#555=DIRECTION('',(-1.,0.,0.));
#556=DIRECTION('',(0.,0.,-1.));
#557=DIRECTION('',(1.,0.,0.));
#558=DIRECTION('',(0.,0.,-1.));
#559=DIRECTION('',(0.,0.,1.));
#560=DIRECTION('',(1.,0.,0.));
#561=DIRECTION('',(0.,0.,1.));
#562=DIRECTION('',(1.,0.,0.));
#563=DIRECTION('',(0.,0.,-1.));
#564=DIRECTION('',(1.,0.,0.));
#565=DIRECTION('',(0.,0.,-1.));
#566=DIRECTION('',(0.,0.,1.));
#567=DIRECTION('',(1.,0.,0.));
#568=DIRECTION('',(0.,0.,1.));
#569=DIRECTION('',(1.,0.,0.));
#570=DIRECTION('',(-1.,0.,0.));
#571=DIRECTION('',(0.,0.,-1.));
#572=DIRECTION('',(0.,0.,-1.));
#573=DIRECTION('',(0.,-1.,0.));
#574=DIRECTION('',(0.,-1.,0.));
#575=DIRECTION('',(0.,0.,-1.));
#576=DIRECTION('',(1.,0.,0.));
#577=DIRECTION('',(0.,0.,-1.));
#578=DIRECTION('',(0.,0.,1.));
#579=DIRECTION('',(1.,0.,0.));
#580=DIRECTION('',(0.,0.,1.));
#581=DIRECTION('',(1.,0.,0.));
#582=DIRECTION('',(1.13134139737618E-16,1.,0.));
#583=DIRECTION('',(1.,-1.13134139737618E-16,0.));
#584=DIRECTION('',(0.,0.,-1.));
#585=DIRECTION('',(-1.,1.13134139737618E-16,0.));
#586=DIRECTION('',(-1.,1.13134139737618E-16,0.));
#587=DIRECTION('',(0.,0.,-1.));
#588=DIRECTION('',(1.,0.,0.));
#589=DIRECTION('',(0.,0.,-1.));
#590=DIRECTION('',(0.,0.,1.));
#591=DIRECTION('',(1.,0.,0.));
#592=DIRECTION('',(0.,0.,1.));
#593=DIRECTION('',(1.,0.,0.));
#594=DIRECTION('',(0.,0.,-1.));
#595=DIRECTION('',(1.,0.,0.));
#596=DIRECTION('',(0.,0.,-1.));
#597=DIRECTION('',(0.,0.,1.));
#598=DIRECTION('',(1.,0.,0.));
#599=DIRECTION('',(0.,0.,1.));
#600=DIRECTION('',(1.,0.,0.));
#601=DIRECTION('',(1.,0.,0.));
#602=DIRECTION('',(0.,0.,1.));
#603=DIRECTION('',(0.,0.,-1.));
#604=DIRECTION('',(0.,1.,0.));
#605=DIRECTION('',(0.,1.,0.));
#606=DIRECTION('',(0.,0.,-1.));
#607=DIRECTION('',(1.,0.,0.));
#608=DIRECTION('',(0.,0.,1.));
#609=DIRECTION('',(1.,0.,0.));
#610=DIRECTION('',(0.,0.,1.));
#611=DIRECTION('',(1.,0.,0.));
#612=DIRECTION('',(0.,0.,-1.));
#613=DIRECTION('',(1.,0.,0.));
#614=DIRECTION('',(0.,0.,1.));
#615=DIRECTION('',(1.,0.,0.));
#616=DIRECTION('',(0.,0.,-1.));
#617=DIRECTION('',(1.,0.,0.));
#618=DIRECTION('',(0.,0.,1.));
#619=DIRECTION('',(1.,0.,0.));
#620=DIRECTION('',(0.,0.,-1.));
#621=DIRECTION('',(-1.,0.,0.));
#622=DIRECTION('',(-1.,-9.05073117900943E-16,0.));
#623=DIRECTION('',(0.,0.,-1.));
#624=DIRECTION('',(-1.,0.,0.));
#625=DIRECTION('',(0.,-1.,0.));
#626=DIRECTION('',(0.,0.,-1.));
#627=DIRECTION('',(-1.,0.,0.));
#628=DIRECTION('',(-1.,1.13134139737618E-16,0.));
#629=DIRECTION('',(0.,0.,-1.));
#630=DIRECTION('',(-1.,0.,0.));
#631=DIRECTION('',(0.,-1.,0.));
#632=DIRECTION('',(0.,0.,-1.));
#633=DIRECTION('',(-1.,0.,0.));
#634=DIRECTION('',(0.,0.,1.));
#635=DIRECTION('',(-1.,0.,0.));
#636=DIRECTION('',(0.,0.,1.));
#637=DIRECTION('',(1.,0.,0.));
#638=DIRECTION('',(0.,0.,1.));
#639=DIRECTION('',(-1.,0.,0.));
#640=DIRECTION('',(0.,0.,1.));
#641=DIRECTION('',(1.,0.,0.));
#642=DIRECTION('',(0.,0.,-1.));
#643=DIRECTION('',(-1.,0.,0.));
#644=DIRECTION('',(0.,0.,-1.));
#645=DIRECTION('',(-1.,0.,0.));
#646=DIRECTION('',(0.,0.,1.));
#647=DIRECTION('',(1.,0.,0.));
#648=DIRECTION('',(0.,-1.,0.));
#649=DIRECTION('',(0.,0.,1.));
#650=DIRECTION('',(1.,0.,0.));
#651=DIRECTION('',(-1.,1.13134139737618E-16,0.));
#652=DIRECTION('',(0.,0.,1.));
#653=DIRECTION('',(1.,0.,0.));
#654=DIRECTION('',(0.,-1.,0.));
#655=DIRECTION('',(0.,0.,1.));
#656=DIRECTION('',(1.,0.,0.));
#657=DIRECTION('',(-1.,-9.05073117900943E-16,0.));
#658=DIRECTION('',(0.,0.,1.));
#659=DIRECTION('',(-1.,0.,0.));
#660=DIRECTION('',(0.,0.,1.));
#661=DIRECTION('',(0.,0.,1.));
#662=DIRECTION('',(9.05073117900943E-16,-1.,0.));
#663=DIRECTION('',(-1.,-9.05073117900943E-16,0.));
#664=DIRECTION('',(0.,0.,1.));
#665=DIRECTION('',(0.,0.,1.));
#666=DIRECTION('',(-1.,0.,0.));
#667=DIRECTION('',(0.,0.,1.));
#668=DIRECTION('',(1.,0.,0.));
#669=DIRECTION('',(0.,0.,1.));
#670=DIRECTION('',(0.,0.,1.));
#671=DIRECTION('',(0.,0.,1.));
#672=DIRECTION('',(-1.,0.,0.));
#673=DIRECTION('',(0.,0.,1.));
#674=DIRECTION('',(1.,0.,0.));
#675=DIRECTION('',(0.,0.,1.));
#676=DIRECTION('',(0.,0.,1.));
#677=DIRECTION('',(-1.13134139737618E-16,-1.,0.));
#678=DIRECTION('',(-1.,1.13134139737618E-16,0.));
#679=DIRECTION('',(0.,0.,1.));
#680=DIRECTION('',(0.,0.,1.));
#681=DIRECTION('',(-1.,0.,0.));
#682=CARTESIAN_POINT('',(0.,0.,0.));
#683=CARTESIAN_POINT('',(0.0776250564748496,0.02,-0.002));
#684=CARTESIAN_POINT('',(0.112871095974022,0.011,-0.002));
#685=CARTESIAN_POINT('',(0.114121095974022,0.011,-0.002));
#686=CARTESIAN_POINT('',(0.112871095974022,0.011,-0.002));
#687=CARTESIAN_POINT('',(0.114971095974022,0.011,-0.002));
#688=CARTESIAN_POINT('',(0.0776250564748496,0.02,-0.002));
#689=CARTESIAN_POINT('',(0.0548710959740223,0.041,-0.002));
#690=CARTESIAN_POINT('',(0.0561210959740223,0.041,-0.002));
#691=CARTESIAN_POINT('',(0.0548710959740223,0.041,-0.002));
#692=CARTESIAN_POINT('',(0.0569710959740223,0.041,-0.002));
#693=CARTESIAN_POINT('',(0.0838710959740222,0.0437,-0.0012));
#694=CARTESIAN_POINT('',(0.0548710959740223,0.0437,-0.0012));
#695=CARTESIAN_POINT('',(0.0548710959740223,0.0437,-0.0012));
#696=CARTESIAN_POINT('',(0.0548710959740223,0.0437,-0.0035));
#697=CARTESIAN_POINT('',(0.0838710959740222,0.0437,-0.0012));
#698=CARTESIAN_POINT('',(0.106871095974022,0.0437,-0.0012));
#699=CARTESIAN_POINT('',(0.106871095974022,0.0437,-0.0012));
#700=CARTESIAN_POINT('',(0.106871095974022,0.0437,-0.0035));
#701=CARTESIAN_POINT('',(0.0838710959740222,0.0437,-0.0035));
#702=CARTESIAN_POINT('',(0.0548710959740223,0.041,-0.0012));
#703=CARTESIAN_POINT('',(0.0548710959740223,0.0383,-0.0012));
#704=CARTESIAN_POINT('',(0.0548710959740223,0.0383,-0.0012));
#705=CARTESIAN_POINT('',(0.0548710959740223,0.0383,-0.0035));
#706=CARTESIAN_POINT('',(0.0548710959740223,0.041,-0.0012));
#707=CARTESIAN_POINT('',(0.0548710959740223,0.041,-0.0035));
#708=CARTESIAN_POINT('',(0.0548710959740223,0.036,-0.0012));
#709=CARTESIAN_POINT('',(0.0571710959740222,0.036,-0.0012));
#710=CARTESIAN_POINT('',(0.0571710959740222,0.036,-0.0012));
#711=CARTESIAN_POINT('',(0.0571710959740222,0.036,-0.0035));
#712=CARTESIAN_POINT('',(0.0548710959740223,0.036,-0.0012));
#713=CARTESIAN_POINT('',(0.0548710959740223,0.036,-0.0035));
#714=CARTESIAN_POINT('',(0.0571710959740222,0.024,-0.0012));
#715=CARTESIAN_POINT('',(0.0571710959740223,0.012,-0.0012));
#716=CARTESIAN_POINT('',(0.0571710959740223,0.012,-0.0012));
#717=CARTESIAN_POINT('',(0.0571710959740223,0.012,-0.0035));
#718=CARTESIAN_POINT('',(0.0571710959740222,0.024,-0.0012));
#719=CARTESIAN_POINT('',(0.0571710959740222,0.024,-0.0035));
#720=CARTESIAN_POINT('',(0.0608710959740223,0.012,-0.0012));
#721=CARTESIAN_POINT('',(0.0608710959740223,0.0083,-0.0012));
#722=CARTESIAN_POINT('',(0.0608710959740223,0.0083,-0.0012));
#723=CARTESIAN_POINT('',(0.0608710959740223,0.0083,-0.0035));
#724=CARTESIAN_POINT('',(0.0608710959740223,0.012,-0.0012));
#725=CARTESIAN_POINT('',(0.0608710959740223,0.012,-0.0035));
#726=CARTESIAN_POINT('',(0.0838710959740222,0.0083,-0.0012));
#727=CARTESIAN_POINT('',(0.112871095974022,0.0083,-0.0012));
#728=CARTESIAN_POINT('',(0.112871095974022,0.0083,-0.0012));
#729=CARTESIAN_POINT('',(0.112871095974022,0.0083,-0.0035));
#730=CARTESIAN_POINT('',(0.0838710959740222,0.0083,-0.0012));
#731=CARTESIAN_POINT('',(0.0838710959740222,0.0083,-0.0035));
#732=CARTESIAN_POINT('',(0.112871095974022,0.011,-0.0012));
#733=CARTESIAN_POINT('',(0.112871095974022,0.0137,-0.0012));
#734=CARTESIAN_POINT('',(0.112871095974022,0.0137,-0.0012));
#735=CARTESIAN_POINT('',(0.112871095974022,0.0137,-0.0035));
#736=CARTESIAN_POINT('',(0.112871095974022,0.011,-0.0012));
#737=CARTESIAN_POINT('',(0.112871095974022,0.011,-0.0035));
#738=CARTESIAN_POINT('',(0.112871095974022,0.016,-0.0012));
#739=CARTESIAN_POINT('',(0.110571095974022,0.016,-0.0012));
#740=CARTESIAN_POINT('',(0.110571095974022,0.016,-0.0012));
#741=CARTESIAN_POINT('',(0.110571095974022,0.016,-0.0035));
#742=CARTESIAN_POINT('',(0.112871095974022,0.016,-0.0012));
#743=CARTESIAN_POINT('',(0.112871095974022,0.016,-0.0035));
#744=CARTESIAN_POINT('',(0.110571095974022,0.028,-0.0012));
#745=CARTESIAN_POINT('',(0.110571095974022,0.04,-0.0012));
#746=CARTESIAN_POINT('',(0.110571095974022,0.04,-0.0012));
#747=CARTESIAN_POINT('',(0.110571095974022,0.04,-0.0035));
#748=CARTESIAN_POINT('',(0.110571095974022,0.028,-0.0012));
#749=CARTESIAN_POINT('',(0.110571095974022,0.028,-0.0035));
#750=CARTESIAN_POINT('',(0.106871095974022,0.04,-0.0012));
#751=CARTESIAN_POINT('',(0.106871095974022,0.04,-0.0012));
#752=CARTESIAN_POINT('',(0.106871095974022,0.04,-0.0035));
#753=CARTESIAN_POINT('',(0.112871095974022,0.011,-0.0012));
#754=CARTESIAN_POINT('',(0.112871095974022,0.011,-0.0012));
#755=CARTESIAN_POINT('',(0.114121095974022,0.011,-0.0012));
#756=CARTESIAN_POINT('',(0.0548710959740223,0.041,-0.0012));
#757=CARTESIAN_POINT('',(0.0548710959740223,0.041,-0.0012));
#758=CARTESIAN_POINT('',(0.0561210959740223,0.041,-0.0012));
#759=CARTESIAN_POINT('',(0.0776250564748496,0.02,-0.0012));
#760=CARTESIAN_POINT('',(0.0838710959740222,0.0427,-0.0012));
#761=CARTESIAN_POINT('',(0.106871095974022,0.0427,-0.0012));
#762=CARTESIAN_POINT('',(0.0608710959740222,0.0427,-0.0012));
#763=CARTESIAN_POINT('',(0.106871095974022,0.04,-0.0012));
#764=CARTESIAN_POINT('',(0.109571095974022,0.04,-0.0012));
#765=CARTESIAN_POINT('',(0.109571095974022,0.026,-0.0012));
#766=CARTESIAN_POINT('',(0.109571095974022,0.012,-0.0012));
#767=CARTESIAN_POINT('',(0.106871095974022,0.012,-0.0012));
#768=CARTESIAN_POINT('',(0.106871095974022,0.0093,-0.0012));
#769=CARTESIAN_POINT('',(0.0838710959740222,0.0093,-0.0012));
#770=CARTESIAN_POINT('',(0.0608710959740222,0.0093,-0.00119999999999998));
#771=CARTESIAN_POINT('',(0.0608710959740222,0.012,-0.0012));
#772=CARTESIAN_POINT('',(0.0581710959740222,0.012,-0.0012));
#773=CARTESIAN_POINT('',(0.0581710959740222,0.026,-0.0012));
#774=CARTESIAN_POINT('',(0.0581710959740222,0.04,-0.0012));
#775=CARTESIAN_POINT('',(0.0608710959740222,0.04,-0.0012));
#776=CARTESIAN_POINT('',(0.0548710959740223,0.041,-0.0035));
#777=CARTESIAN_POINT('',(0.0548710959740223,0.041,-0.0035));
#778=CARTESIAN_POINT('',(0.0569710959740223,0.041,-0.0035));
#779=CARTESIAN_POINT('',(0.112871095974022,0.011,-0.0035));
#780=CARTESIAN_POINT('',(0.112871095974022,0.011,-0.0035));
#781=CARTESIAN_POINT('',(0.114971095974022,0.011,-0.0035));
#782=CARTESIAN_POINT('',(0.0776250564748496,0.02,-0.0035));
#783=CARTESIAN_POINT('',(0.0776250564748496,0.02,-0.0025));
#784=CARTESIAN_POINT('',(0.0608710959740222,0.04,-0.0025));
#785=CARTESIAN_POINT('',(0.0581710959740222,0.04,-0.0025));
#786=CARTESIAN_POINT('',(0.0608710959740222,0.0427,-0.0025));
#787=CARTESIAN_POINT('',(0.0581710959740222,0.026,-0.0025));
#788=CARTESIAN_POINT('',(0.0581710959740222,0.012,-0.0025));
#789=CARTESIAN_POINT('',(0.0608710959740222,0.012,-0.0025));
#790=CARTESIAN_POINT('',(0.0608710959740222,0.0093,-0.0025));
#791=CARTESIAN_POINT('',(0.0838710959740222,0.0093,-0.0025));
#792=CARTESIAN_POINT('',(0.106871095974022,0.0093,-0.0025));
#793=CARTESIAN_POINT('',(0.106871095974022,0.012,-0.0025));
#794=CARTESIAN_POINT('',(0.109571095974022,0.012,-0.0025));
#795=CARTESIAN_POINT('',(0.109571095974022,0.026,-0.0025));
#796=CARTESIAN_POINT('',(0.109571095974022,0.04,-0.0025));
#797=CARTESIAN_POINT('',(0.106871095974022,0.04,-0.0025));
#798=CARTESIAN_POINT('',(0.106871095974022,0.0427,-0.0025));
#799=CARTESIAN_POINT('',(0.0838710959740222,0.0427,-0.0025));
#800=CARTESIAN_POINT('',(0.0608710959740222,0.04,-0.319676531485301));
#801=CARTESIAN_POINT('',(0.0581710959740222,0.04,-0.319676531485301));
#802=CARTESIAN_POINT('',(0.0608710959740222,0.0427,-0.319676531485301));
#803=CARTESIAN_POINT('',(0.0838710959740222,0.0427,-0.319676531485301));
#804=CARTESIAN_POINT('',(0.106871095974022,0.0427,-0.319676531485301));
#805=CARTESIAN_POINT('',(0.106871095974022,0.04,-0.319676531485301));
#806=CARTESIAN_POINT('',(0.109571095974022,0.04,-0.319676531485301));
#807=CARTESIAN_POINT('',(0.109571095974022,0.026,-0.319676531485301));
#808=CARTESIAN_POINT('',(0.109571095974022,0.012,-0.319676531485301));
#809=CARTESIAN_POINT('',(0.106871095974022,0.012,-0.319676531485301));
#810=CARTESIAN_POINT('',(0.106871095974022,0.0093,-0.319676531485301));
#811=CARTESIAN_POINT('',(0.0581710959740222,0.026,-0.319676531485301));
#812=CARTESIAN_POINT('',(0.0581710959740222,0.012,-0.319676531485301));
#813=CARTESIAN_POINT('',(0.0838710959740222,0.0093,-0.319676531485301));
#814=CARTESIAN_POINT('',(0.0608710959740222,0.0093,-0.319676531485301));
#815=CARTESIAN_POINT('',(0.0608710959740222,0.012,-0.319676531485301));
#816=MECHANICAL_DESIGN_GEOMETRIC_PRESENTATION_REPRESENTATION('',(#469),#817);
#817=(
GEOMETRIC_REPRESENTATION_CONTEXT(3)
GLOBAL_UNCERTAINTY_ASSIGNED_CONTEXT((#818))
GLOBAL_UNIT_ASSIGNED_CONTEXT((#821,#820,#819))
REPRESENTATION_CONTEXT('left-battery-cover','TOP_LEVEL_ASSEMBLY_PART')
);
#818=UNCERTAINTY_MEASURE_WITH_UNIT(LENGTH_MEASURE(1.E-08),#821,'DISTANCE_ACCURACY_VALUE','Maximum Tolerance applied to model');
#819=(
NAMED_UNIT(*)
SI_UNIT($,.STERADIAN.)
SOLID_ANGLE_UNIT()
);
#820=(
NAMED_UNIT(*)
PLANE_ANGLE_UNIT()
SI_UNIT($,.RADIAN.)
);
#821=(
LENGTH_UNIT()
NAMED_UNIT(*)
SI_UNIT($,.METRE.)
);
#822=PRODUCT_DEFINITION_SHAPE('','',#823);
#823=PRODUCT_DEFINITION('','',#825,#824);
#824=PRODUCT_DEFINITION_CONTEXT('',#831,'design');
#825=PRODUCT_DEFINITION_FORMATION_WITH_SPECIFIED_SOURCE('','',#827,.NOT_KNOWN.);
#826=PRODUCT_RELATED_PRODUCT_CATEGORY('','',(#827));
#827=PRODUCT('left-battery-cover','left-battery-cover','left-battery-cover',(#829));
#828=PRODUCT_CATEGORY('','');
#829=PRODUCT_CONTEXT('',#831,'mechanical');
#830=APPLICATION_PROTOCOL_DEFINITION('international standard','ap242_managed_model_based_3d_engineering',2020,#831);
#831=APPLICATION_CONTEXT('managed model based 3d engineering');
ENDSEC;
END-ISO-10303-21;
